<?xml version="1.0" encoding="utf-8"?>
<!-- Generator: Adobe Illustrator 16.0.0, SVG Export Plug-In . SVG Version: 6.00 Build 0)  -->
<!DOCTYPE svg PUBLIC "-//W3C//DTD SVG 1.1//EN" "http://www.w3.org/Graphics/SVG/1.1/DTD/svg11.dtd">
<svg version="1.1" id="Layer_1" xmlns="http://www.w3.org/2000/svg" xmlns:xlink="http://www.w3.org/1999/xlink" x="0px" y="0px"
	 width="153.5px" height="27px" viewBox="0 0 153.5 27" enable-background="new 0 0 153.5 27" xml:space="preserve">
<g>
	<path fill="#EAEAEA" d="M17.652,60.059c-0.363,0.865-0.843,1.596-1.44,2.192c-0.597,0.597-1.28,1.056-2.05,1.376
		c-0.77,0.32-1.561,0.48-2.375,0.48c-0.623,0-1.193-0.078-1.712-0.234c-0.519-0.155-0.986-0.363-1.401-0.623
		c-0.416-0.259-0.792-0.562-1.129-0.908s-0.636-0.709-0.896-1.09v6.721H4.651V50.405h1.998v2.699
		c0.277-0.398,0.584-0.779,0.921-1.142s0.714-0.679,1.129-0.947c0.415-0.268,0.878-0.484,1.388-0.649
		c0.51-0.164,1.077-0.247,1.7-0.247c0.796,0,1.579,0.156,2.349,0.467s1.458,0.766,2.063,1.363c0.606,0.596,1.09,1.328,1.454,2.193
		s0.545,1.851,0.545,2.958C18.197,58.208,18.016,59.194,17.652,60.059z M15.771,54.983c-0.25-0.637-0.592-1.184-1.025-1.639
		c-0.433-0.457-0.934-0.805-1.505-1.046c-0.571-0.24-1.177-0.361-1.816-0.361c-0.623,0-1.224,0.125-1.804,0.375
		c-0.58,0.25-1.099,0.598-1.557,1.046c-0.458,0.447-0.822,0.99-1.09,1.626c-0.269,0.637-0.402,1.343-0.402,2.118
		c0,0.774,0.134,1.484,0.402,2.13c0.268,0.646,0.631,1.192,1.09,1.639c0.458,0.448,0.977,0.796,1.557,1.046
		c0.58,0.25,1.181,0.374,1.804,0.374c0.64,0,1.25-0.116,1.829-0.349s1.081-0.568,1.505-1.007c0.424-0.439,0.761-0.981,1.012-1.627
		c0.251-0.646,0.377-1.373,0.377-2.182C16.147,56.335,16.021,55.621,15.771,54.983z"/>
	<path fill="#EAEAEA" d="M21.674,63.822h-1.998V45.878h1.998v6.863c0.45-0.727,1.038-1.345,1.765-1.855
		c0.727-0.51,1.669-0.766,2.829-0.766c0.813,0,1.536,0.13,2.167,0.39s1.168,0.627,1.609,1.103c0.441,0.476,0.779,1.042,1.012,1.7
		c0.233,0.658,0.351,1.385,0.351,2.18v8.33h-1.999v-7.837c0-1.246-0.32-2.232-0.96-2.958c-0.641-0.727-1.557-1.09-2.751-1.09
		c-0.571,0-1.103,0.1-1.596,0.298c-0.493,0.199-0.921,0.485-1.284,0.856c-0.363,0.372-0.645,0.817-0.844,1.336
		s-0.298,1.09-0.298,1.713V63.822z"/>
	<path fill="#EAEAEA" d="M46.517,59.638c-0.355,0.856-0.844,1.605-1.467,2.245s-1.367,1.146-2.231,1.518
		c-0.866,0.372-1.8,0.558-2.803,0.558s-1.929-0.186-2.776-0.558c-0.848-0.373-1.583-0.874-2.206-1.506
		c-0.623-0.631-1.107-1.371-1.453-2.218c-0.346-0.847-0.519-1.748-0.519-2.699c0-0.951,0.173-1.855,0.519-2.711
		s0.831-1.605,1.453-2.245c0.623-0.64,1.363-1.146,2.219-1.518c0.856-0.372,1.794-0.558,2.815-0.558c1.003,0,1.934,0.187,2.79,0.558
		c0.856,0.372,1.596,0.874,2.219,1.505c0.623,0.632,1.107,1.372,1.453,2.219c0.346,0.848,0.52,1.748,0.52,2.699
		C47.048,57.877,46.871,58.781,46.517,59.638z M44.622,54.919c-0.251-0.638-0.602-1.195-1.051-1.669
		c-0.451-0.474-0.979-0.85-1.583-1.126c-0.606-0.276-1.263-0.415-1.973-0.415c-0.727,0-1.393,0.134-1.998,0.401
		c-0.606,0.268-1.121,0.639-1.544,1.113s-0.757,1.026-1,1.657c-0.242,0.63-0.363,1.308-0.363,2.032s0.125,1.407,0.376,2.045
		c0.25,0.639,0.597,1.191,1.038,1.657c0.441,0.466,0.965,0.837,1.57,1.113s1.263,0.414,1.972,0.414c0.727,0,1.393-0.134,1.998-0.401
		c0.605-0.268,1.125-0.634,1.557-1.101c0.432-0.466,0.77-1.014,1.012-1.644c0.242-0.63,0.363-1.307,0.363-2.032
		S44.873,55.558,44.622,54.919z"/>
	<path fill="#EAEAEA" d="M50.713,60.007c0,0.83,0.208,1.41,0.623,1.739c0.416,0.329,0.96,0.493,1.635,0.493
		c0.346,0,0.67-0.035,0.973-0.104s0.627-0.19,0.973-0.363v1.713c-0.346,0.19-0.714,0.333-1.103,0.428
		c-0.389,0.095-0.826,0.143-1.311,0.143c-0.536,0-1.038-0.07-1.505-0.208c-0.467-0.139-0.869-0.359-1.207-0.662
		c-0.337-0.303-0.602-0.697-0.791-1.181c-0.191-0.484-0.286-1.064-0.286-1.739V52.17h-1.868v-1.765h1.868v-4.048h1.999v4.048h4.256
		v1.765h-4.256V60.007z"/>
	<g>
		<path fill="#EAEAEA" d="M73.518,50.927c-0.087-0.135-0.216-0.213-0.353-0.213h-0.978c-0.154,0-0.297,0.1-0.383,0.264l-0.165,0.32
			h2.117L73.518,50.927z"/>
		<path fill="#EAEAEA" d="M58.581,50.921c-0.079-0.138-0.197-0.217-0.322-0.217h-0.892c-0.141,0-0.271,0.102-0.349,0.269
			l-0.15,0.326H58.8L58.581,50.921z"/>
		<g>
			<g>
				<path fill="#EAEAEA" d="M58.223,53.766c-0.344,0.687-0.596,1.435-0.737,2.231c-0.348,1.973,0.047,3.904,0.982,5.509l5.7-6.691
					L58.223,53.766z"/>
				<path fill="#EAEAEA" d="M65.074,49.283c-2.8,0.144-5.32,1.734-6.674,4.147l8.704,1.536L65.074,49.283z"/>
				<path fill="#EAEAEA" d="M72.777,61.056c0.344-0.688,0.596-1.435,0.736-2.231c0.348-1.971-0.045-3.901-0.98-5.506l-5.702,6.688
					L72.777,61.056z"/>
				<path fill="#EAEAEA" d="M72.334,52.996c-1.186-1.834-3.101-3.189-5.42-3.598c-0.491-0.086-0.979-0.127-1.459-0.125l2.968,8.31
					L72.334,52.996z"/>
				<path fill="#EAEAEA" d="M58.667,61.831c1.186,1.832,3.099,3.185,5.417,3.594c0.522,0.092,1.042,0.132,1.554,0.124l-3.06-8.31
					L58.667,61.831z"/>
				<path fill="#EAEAEA" d="M66.018,65.534c2.762-0.174,5.243-1.755,6.581-4.142l-8.668-1.53L66.018,65.534z"/>
			</g>
		</g>
		<g>
			<path fill="#EAEAEA" d="M74.693,51.48h-4.244l0.456,0.434c0.009,0.008,0.017,0.017,0.026,0.026l0.028,0.028l0.003,0.015h0.011
				l0.075,0.076l0.074-0.076h3.57c0.061,0,0.11,0.049,0.11,0.11v10.958c0,0.312-0.254,0.565-0.566,0.565h-7.795v0.502h7.795
				c0.589,0,1.068-0.479,1.068-1.068V52.093C75.306,51.755,75.031,51.48,74.693,51.48z"/>
			<path fill="#EAEAEA" d="M61.453,49.836c0.345-0.648,1.015-1.051,1.749-1.051h4.659c0.768,0,1.474,0.451,1.797,1.148l0.716,1.548
				l0.456-0.211l-0.716-1.548c-0.405-0.875-1.289-1.439-2.252-1.439h-4.659c-0.92,0-1.76,0.505-2.192,1.318l-0.86,1.62l0.444,0.235
				L61.453,49.836z"/>
			<circle fill="#EAEAEA" cx="73.55" cy="52.916" r="0.568"/>
			<path fill="#EAEAEA" d="M56.124,63.051V52.093c0-0.061,0.049-0.11,0.11-0.11h3.744l-0.014-0.502h-3.73
				c-0.338,0-0.613,0.275-0.613,0.613v10.958c0,0.589,0.479,1.068,1.068,1.068h6.738v-0.502H56.69
				C56.378,63.616,56.124,63.362,56.124,63.051z"/>
		</g>
	</g>
</g>
<g>
	<path fill="#EAEAEA" d="M72.306,20.102l1.843-2.984c1.609,1.064,3.374,1.609,4.827,1.609c0.857,0,1.246-0.259,1.246-0.752v-0.052
		c0-0.545-0.779-0.779-2.258-1.194c-2.777-0.727-4.983-1.661-4.983-4.49v-0.052c0-2.984,2.388-4.646,5.632-4.646
		c2.05,0,4.179,0.597,5.788,1.635l-1.687,3.115c-1.454-0.805-3.037-1.298-4.153-1.298c-0.753,0-1.142,0.285-1.142,0.675v0.052
		c0,0.544,0.805,0.805,2.284,1.246c2.777,0.778,4.983,1.739,4.983,4.464v0.052c0,3.088-2.31,4.698-5.736,4.698
		C76.588,22.179,74.252,21.504,72.306,20.102z"/>
	<path fill="#EAEAEA" d="M85.1,17.507v-5.71h-1.661V7.826H85.1V4.27h4.931v3.556h3.27v3.971h-3.27v4.75
		c0,0.986,0.441,1.401,1.35,1.401c0.649,0,1.272-0.182,1.869-0.467v3.867c-0.882,0.493-2.05,0.805-3.426,0.805
		C86.865,22.152,85.1,20.854,85.1,17.507z"/>
	<path fill="#EAEAEA" d="M92.263,14.911v-0.052c0-3.997,3.271-7.345,7.786-7.345c4.49,0,7.734,3.296,7.734,7.293v0.052
		c0,3.997-3.27,7.345-7.786,7.345C95.507,22.205,92.263,18.908,92.263,14.911z M102.981,14.911v-0.052
		c0-1.713-1.245-3.167-2.984-3.167c-1.791,0-2.933,1.428-2.933,3.114v0.052c0,1.713,1.245,3.167,2.984,3.167
		C101.84,18.026,102.981,16.598,102.981,14.911z"/>
	<path fill="#EAEAEA" d="M107.65,7.826h4.932v2.829c0.805-1.921,2.103-3.167,4.438-3.063v5.191h-0.415
		c-2.57,0-4.023,1.479-4.023,4.724v4.36h-4.932V7.826z"/>
	<path fill="#EAEAEA" d="M116.552,2.92h5.14v3.634h-5.14V2.92z M116.656,7.826h4.931v14.042h-4.931V7.826z"/>
	<path fill="#EAEAEA" d="M121.561,14.911v-0.052c0-4.101,2.933-7.345,7.086-7.345c4.853,0,7.084,3.556,7.084,7.683
		c0,0.312,0,0.675-0.025,1.012h-9.395c0.389,1.531,1.504,2.31,3.036,2.31c1.168,0,2.103-0.441,3.114-1.428l2.725,2.258
		c-1.349,1.713-3.295,2.855-6.099,2.855C124.675,22.205,121.561,19.272,121.561,14.911z M131.111,13.691
		c-0.182-1.557-1.09-2.543-2.439-2.543c-1.298,0-2.18,1.012-2.439,2.543H131.111z"/>
	<path fill="#EAEAEA" d="M134.562,20.102l1.843-2.984c1.609,1.064,3.374,1.609,4.827,1.609c0.856,0,1.246-0.259,1.246-0.752v-0.052
		c0-0.545-0.778-0.779-2.259-1.194c-2.776-0.727-4.982-1.661-4.982-4.49v-0.052c0-2.984,2.388-4.646,5.633-4.646
		c2.05,0,4.178,0.597,5.787,1.635l-1.688,3.115c-1.453-0.805-3.036-1.298-4.152-1.298c-0.752,0-1.143,0.285-1.143,0.675v0.052
		c0,0.544,0.805,0.805,2.285,1.246c2.776,0.778,4.982,1.739,4.982,4.464v0.052c0,3.088-2.31,4.698-5.736,4.698
		C138.844,22.179,136.508,21.504,134.562,20.102z"/>
</g>
<g>
	<path fill="#EAEAEA" d="M36.746,12.031l-2.891,9.229h-1.989L28.235,9.695h1.85l2.775,9.414l2.938-9.414h1.896l2.938,9.414
		l2.775-9.414h1.851L41.626,21.26h-1.989L36.746,12.031z"/>
	<path fill="#EAEAEA" d="M55.388,17.929h1.896c-0.81,2.082-2.521,3.516-5.273,3.516c-3.539,0-5.852-2.66-5.852-5.967
		s2.197-5.967,5.736-5.967s5.736,2.659,5.736,5.967v0.694H47.94c0.254,2.058,1.758,3.701,4.094,3.701
		C53.653,19.873,54.763,19.085,55.388,17.929z M47.963,14.553h7.864c-0.324-1.966-1.712-3.47-3.932-3.47
		S48.287,12.586,47.963,14.553z"/>
	<path fill="#EAEAEA" d="M71.23,15.478c0,3.308-2.22,5.967-5.597,5.967c-1.919,0-3.284-0.786-4.14-2.036v1.851h-1.734V5.07h1.734
		v6.499c0.856-1.249,2.221-2.058,4.14-2.058C69.01,9.511,71.23,12.17,71.23,15.478z M69.496,15.478c0-2.382-1.526-4.395-4.094-4.395
		S61.4,13.095,61.4,15.478c0,2.383,1.435,4.395,4.002,4.395S69.496,17.86,69.496,15.478z"/>
</g>
<g>
	<path fill-rule="evenodd" clip-rule="evenodd" fill="#EAEAEA" d="M19.735,13.284c0-2.824-0.003-5.647,0.005-8.472
		c0.001-0.288-0.142-0.661,0.201-0.834c0.335-0.17,0.665,0.022,0.949,0.199c0.756,0.467,1.192,1.146,1.192,2.047
		c0.003,4.757-0.004,9.515-0.007,14.272c0,0.515-0.172,0.968-0.514,1.344c-0.418,0.459-0.916,1.011-1.548,0.784
		c-0.534-0.192-0.239-0.874-0.244-1.329c-0.025-2.67-0.012-5.341-0.012-8.011C19.75,13.284,19.743,13.284,19.735,13.284z"/>
	<path fill-rule="evenodd" clip-rule="evenodd" fill="#EAEAEA" d="M24.495,13.241c0-2.055-0.005-4.111,0.006-6.166
		c0.001-0.253-0.127-0.592,0.217-0.725c0.282-0.108,0.54,0.059,0.768,0.214c0.591,0.403,0.782,1.023,0.784,1.683
		c0.013,3.344,0.014,6.687-0.013,10.031c-0.006,0.712-0.173,1.411-0.874,1.817c-0.628,0.364-0.871,0.233-0.875-0.504
		c-0.01-2.117-0.003-4.233-0.003-6.35C24.502,13.241,24.499,13.241,24.495,13.241z"/>
	<g>
		<path fill-rule="evenodd" clip-rule="evenodd" fill="#EAEAEA" d="M10.57,18.04c-0.064,0.013-0.066,0.151-0.07,0.227
			c-0.004,0.085-0.002,0.184-0.002,0.291c0,0.096-0.001,0.196,0.002,0.29c0.001,0.041,0.005,0.09,0.015,0.132
			c0.008,0.037,0.028,0.085,0.064,0.082c0.033-0.003,0.042-0.056,0.047-0.095c0.018-0.13,0.008-0.285,0.008-0.42v-0.284
			c0-0.052,0-0.087-0.007-0.135C10.621,18.077,10.61,18.033,10.57,18.04z"/>
		<path fill-rule="evenodd" clip-rule="evenodd" fill="#EAEAEA" d="M8.167,17.719c-0.073-0.016-0.08,0.007-0.08,0.068
			c0.002,0.299,0,0.598,0.001,0.896c0.001,0.275-0.081,0.516-0.276,0.715c-0.08,0.081-0.165,0.155-0.258,0.239
			c0.237,0.188,0.504,0.229,0.786,0.224c0.069-0.001,0.055-0.048,0.055-0.088c0-0.591,0-1.182,0-1.773
			C8.394,17.765,8.393,17.769,8.167,17.719z"/>
		<path fill-rule="evenodd" clip-rule="evenodd" fill="#EAEAEA" d="M7.594,18.461c0-0.25,0-0.501-0.001-0.751
			c0-0.028,0.02-0.068-0.026-0.083c-0.04-0.012-0.059,0.02-0.081,0.042c-0.258,0.258-0.408,0.566-0.427,0.934
			c-0.018,0.343,0.072,0.647,0.316,0.9c0.055,0.057,0.086,0.047,0.129-0.008c0.073-0.093,0.088-0.201,0.089-0.312
			C7.595,18.942,7.594,18.701,7.594,18.461z"/>
		<path fill-rule="evenodd" clip-rule="evenodd" fill="#EAEAEA" d="M17.425,4.381c-0.013-1.962-0.947-2.865-2.901-2.866
			C11.392,1.512,8.26,1.513,5.128,1.513c-2.239,0-3.088,0.861-3.087,3.14c0.004,5.742,0.008,11.483,0.02,17.225
			c0,0.396,0.012,0.803,0.095,1.188c0.274,1.276,0.952,2.062,2.375,2.036c3.254-0.06,6.509-0.019,9.764-0.02
			c2.279,0,3.113-0.826,3.118-3.107c0.005-2.886,0.001-5.772,0.001-8.659c0.005,0,0.011,0,0.016,0
			C17.43,10.338,17.445,7.36,17.425,4.381z M9.356,19.308c-0.186,0.664-0.696,1.022-1.389,0.987
			c-0.419-0.022-0.791-0.155-1.079-0.467c-0.404-0.437-0.435-1.119-0.086-1.642c0.133-0.2,0.302-0.365,0.492-0.509
			c0.028-0.021,0.063-0.035,0.084-0.078c-0.404-0.075-0.727,0.031-0.958,0.373c-0.014,0.021-0.027,0.055-0.058,0.041
			c-0.03-0.014-0.012-0.046-0.007-0.07c0.081-0.435,0.402-0.73,0.856-0.8C7.613,17.078,8,17.165,8.387,17.249
			c0.175,0.038,0.349,0.077,0.527,0.091c0.171,0.014,0.305-0.045,0.4-0.189c0.015-0.022,0.025-0.063,0.063-0.045
			c0.033,0.017,0.011,0.053,0.006,0.079c-0.059,0.377-0.305,0.576-0.726,0.59C8.51,17.78,8.51,17.78,8.51,17.923
			c0,0.601,0,1.203,0,1.804c0,0.118,0,0.117,0.116,0.078c0.287-0.097,0.496-0.288,0.662-0.535c0.015-0.022,0.021-0.075,0.066-0.05
			C9.395,19.243,9.365,19.278,9.356,19.308z M9.389,18.461c-0.021,0.021-0.056,0.04-0.095,0.037
			c-0.046-0.004-0.084-0.034-0.107-0.063c-0.043-0.055-0.061-0.148-0.06-0.233c0-0.023,0.006-0.053,0.009-0.078
			c0.002-0.023,0.011-0.054-0.012-0.067c-0.031,0.018-0.038,0.059-0.047,0.095c-0.026,0.111-0.024,0.256-0.024,0.399v0.566
			c0.031,0.003,0.07,0,0.104,0.001v0.062H8.615v-0.062h0.073c0.004-0.378,0-0.763,0.001-1.144H8.615v-0.066
			c0.14-0.011,0.28-0.022,0.421-0.032v0.268c0.05-0.118,0.097-0.276,0.265-0.258c0.027,0.003,0.057,0.019,0.075,0.036
			C9.487,18.027,9.499,18.352,9.389,18.461z M10.035,19.181h-0.52v-0.062h0.073c0.004-0.377,0.001-0.762,0.002-1.142H9.516v-0.068
			c0.155-0.001,0.291-0.02,0.435-0.032c0.008,0.407,0.001,0.828,0.003,1.241c0.024,0.003,0.055,0,0.082,0.001V19.181z M9.572,17.525
			c0-0.153,0.041-0.276,0.2-0.276c0.091,0,0.145,0.041,0.171,0.111c0.052,0.137,0.018,0.357-0.096,0.407
			c-0.082,0.035-0.187,0-0.23-0.062C9.586,17.66,9.572,17.596,9.572,17.525z M10.975,18.903c-0.031,0.129-0.093,0.251-0.187,0.298
			c-0.074,0.038-0.167,0.016-0.213-0.03c-0.048-0.048-0.072-0.119-0.092-0.193c-0.003,0.078,0,0.162-0.001,0.242
			c-0.135-0.015-0.26-0.039-0.41-0.039v-0.062h0.077c0.004-0.577,0-1.161,0.002-1.74h-0.079v-0.06
			c0.147-0.005,0.288-0.02,0.413-0.042c0.015-0.002,0.013-0.001,0.013,0.017c0.008,0.124,0,0.25,0,0.373v0.396
			c0.038-0.064,0.07-0.134,0.135-0.171c0.061-0.035,0.146-0.014,0.188,0.019c0.046,0.035,0.078,0.088,0.102,0.141
			C11.019,18.266,11.039,18.631,10.975,18.903z M12.074,19.181c-0.153,0-0.285,0.021-0.42,0.04c-0.003-0.081,0-0.168-0.001-0.251
			c-0.056,0.113-0.109,0.236-0.253,0.25c-0.167,0.015-0.215-0.117-0.24-0.258c-0.026-0.145-0.02-0.313-0.02-0.483v-0.501h-0.073
			v-0.068c0.136-0.005,0.288-0.012,0.415-0.03c0.011-0.001,0.015-0.009,0.017,0.011c0.007,0.086,0,0.198,0,0.279v0.746
			c0,0.059-0.003,0.137,0.065,0.123c0.057-0.011,0.071-0.144,0.075-0.21c0.006-0.102,0.002-0.201,0.002-0.283v-0.567h-0.08v-0.068
			c0.151-0.002,0.279-0.026,0.432-0.027v1.237h0.083V19.181z M13.133,19.181h-0.481v-0.062H12.7c0.003-0.26,0.002-0.548,0.001-0.821
			c0-0.04,0-0.09-0.003-0.133c-0.003-0.044-0.011-0.095-0.047-0.098c-0.042-0.004-0.059,0.042-0.068,0.075
			c-0.033,0.109-0.023,0.267-0.023,0.406c0,0.194,0,0.382,0,0.571h0.053v0.062h-0.485v-0.062h0.074v-1.142h-0.074v-0.068
			c0.15-0.003,0.279-0.027,0.432-0.027v0.245c0.045-0.109,0.097-0.227,0.225-0.249c0.056-0.01,0.109,0.005,0.145,0.028
			c0.063,0.041,0.093,0.134,0.108,0.227c0.016,0.099,0.015,0.21,0.015,0.318c0,0.233,0,0.463,0,0.668h0.08V19.181z M14.135,6.947
			c-0.172,1.094-0.884,1.671-2.109,1.713c-0.427,0.016-0.427,0.016-0.427,0.431c0,1.747,0,3.494,0,5.241
			c0,0.342,0,0.339,0.335,0.226c0.833-0.281,1.441-0.837,1.924-1.552c0.044-0.066,0.059-0.218,0.192-0.146
			c0.117,0.063,0.03,0.167,0.006,0.251c-0.54,1.929-2.021,2.97-4.034,2.866c-1.219-0.063-2.296-0.45-3.134-1.355
			c-1.174-1.269-1.264-3.25-0.249-4.77c0.387-0.58,0.876-1.06,1.429-1.479c0.08-0.061,0.18-0.101,0.244-0.227
			C7.138,7.927,6.2,8.237,5.527,9.229C5.488,9.287,5.449,9.387,5.359,9.345c-0.086-0.04-0.035-0.133-0.022-0.202
			c0.236-1.264,1.168-2.121,2.488-2.326c1.168-0.181,2.291,0.072,3.417,0.314c0.507,0.109,1.012,0.224,1.532,0.265
			c0.497,0.04,0.885-0.13,1.162-0.549c0.043-0.066,0.075-0.185,0.182-0.13C14.21,6.765,14.147,6.87,14.135,6.947z"/>
		<path fill-rule="evenodd" clip-rule="evenodd" fill="#EAEAEA" d="M8.936,10.653c0-0.728,0.002-1.455-0.003-2.181
			c0-0.082,0.059-0.199-0.076-0.24C8.742,8.196,8.687,8.29,8.623,8.354c-0.75,0.75-1.186,1.643-1.24,2.711
			c-0.051,0.997,0.21,1.879,0.918,2.612c0.159,0.164,0.249,0.138,0.375-0.022c0.212-0.27,0.255-0.584,0.258-0.907
			C8.94,12.049,8.936,11.351,8.936,10.653z"/>
		<path fill-rule="evenodd" clip-rule="evenodd" fill="#EAEAEA" d="M11.261,9.316c0-0.684-0.002-0.673-0.662-0.817
			c-0.212-0.045-0.232,0.021-0.23,0.199c0.006,0.868,0,1.735,0.003,2.603c0.003,0.798-0.234,1.497-0.802,2.077
			c-0.231,0.236-0.48,0.452-0.75,0.694c0.689,0.545,1.465,0.667,2.282,0.65c0.199-0.004,0.158-0.141,0.158-0.256
			C11.261,12.75,11.261,11.033,11.261,9.316z"/>
	</g>
</g>
</svg>
