<svg width="16" height="16" viewBox="0 0 16 16" fill="none" xmlns="http://www.w3.org/2000/svg">
<path d="M7.93341 14.6666L10.9667 6.66658H12.3667L15.4001 14.6666H14.0001L13.3001 12.6333H10.0667L9.33341 14.6666H7.93341ZM10.4667 11.4666H12.8667L11.7001 8.16658H11.6334L10.4667 11.4666ZM2.66675 12.6666L1.73341 11.7333L5.10008 8.36658C4.67786 7.89992 4.30853 7.41658 3.99208 6.91658C3.67519 6.41658 3.40008 5.88881 3.16675 5.33325H4.56675C4.76675 5.73325 4.98075 6.09436 5.20875 6.41658C5.4363 6.73881 5.71119 7.0777 6.03342 7.43325C6.5223 6.89992 6.92786 6.35281 7.25008 5.79192C7.5723 5.23058 7.84453 4.63325 8.06675 3.99992H0.666748V2.66659H5.33341V1.33325H6.66675V2.66659H11.3334V3.99992H9.40008C9.16675 4.78881 8.85008 5.55547 8.45008 6.29992C8.05008 7.04436 7.55564 7.74436 6.96675 8.39992L8.56675 10.0333L8.06675 11.3999L6.00008 9.33325L2.66675 12.6666Z" fill="white"/>
</svg>
