<svg xmlns="http://www.w3.org/2000/svg" xml:space="preserve" width="186.231" height="40"><radialGradient id="a" cx="15.129" cy="20.371" r="16.004" gradientUnits="userSpaceOnUse"><stop offset="0" style="stop-color:#d40005"/><stop offset=".199" style="stop-color:#d4000e"/><stop offset=".586" style="stop-color:#d40019"/><stop offset="1" style="stop-color:#d4001d"/></radialGradient><path fill="url(#a)" d="M23.647 2.205H5.575c-2.27 0-3.946 1.797-3.946 4.067v20.123c0 2.27 1.453 4.811 3.946 4.811h2.054v7.332l7.905-7.332h8.113c2.271 0 4.982-2.541 4.982-4.811V6.272c0-2.27-2.712-4.067-4.982-4.067z"/><path fill="#F8F2ED" d="M9.383 10.495V23.44c0 1.359 1.488 2.195 2.648 1.488l10.62-6.473a1.742 1.742 0 0 0 0-2.975l-10.62-6.474c-1.16-.707-2.648.129-2.648 1.489z"/><radialGradient id="b" cx="14.385" cy="16.967" r="2.627" gradientUnits="userSpaceOnUse"><stop offset="0" style="stop-color:#d40005"/><stop offset=".199" style="stop-color:#d4000e"/><stop offset=".586" style="stop-color:#d40019"/><stop offset="1" style="stop-color:#d4001d"/></radialGradient><path fill="url(#b)" d="M16.232 18.536a2.003 2.003 0 0 1-.771.359v-3.483c.027.002.055.004.083.004h.132c.381 0 .684-.098.904-.294s.343-.473.367-.828l-.065-.016a.934.934 0 0 1-.281.322.674.674 0 0 1-.369.094c-.191 0-.494-.047-.908-.141a10.38 10.38 0 0 0-.495-.106 8.525 8.525 0 0 0-.619-.102 3.442 3.442 0 0 0-.412-.028c-.569 0-1.021.129-1.359.385s-.543.628-.617 1.118h.073c.165-.256.349-.444.554-.563.203-.119.446-.179.724-.179a2.383 2.383 0 0 1 .438.043c-.465.317-.818.67-1.057 1.056a2.324 2.324 0 0 0-.358 1.241c0 .311.053.598.161.858.108.26.269.492.483.697.243.225.521.395.832.51.311.115.652.173 1.022.173.575 0 1.056-.155 1.44-.464.383-.311.646-.752.787-1.328l-.081-.031a2.5 2.5 0 0 1-.608.703m-2.566-.109a1.874 1.874 0 0 1-.485-.646 2 2 0 0 1-.161-.816c0-.361.064-.687.194-.977.129-.289.333-.567.61-.834l.101.015v2.627a.972.972 0 0 1-.059.375.7.7 0 0 1-.2.256m1.604.5c-.021.003-.046.004-.073.006a3.472 3.472 0 0 1-.126.002c-.251 0-.481-.033-.69-.098a1.51 1.51 0 0 1-.533-.288c.347-.278.585-.533.715-.766.128-.231.193-.521.193-.871v-1.616l.514.102v3.529z"/><path fill="#212121" d="M31.273 11.537c0-2.063.491-3.647 1.474-4.752.983-1.104 2.458-1.656 4.424-1.656 1.966 0 3.44.552 4.423 1.656.983 1.105 1.475 2.689 1.475 4.752v.801h-3.786v-1.056c0-.922-.177-1.571-.528-1.947-.353-.377-.844-.565-1.475-.565-.631 0-1.123.188-1.475.565-.352.376-.527 1.025-.527 1.947 0 .874.193 1.645.583 2.313a9.584 9.584 0 0 0 1.456 1.893 37.25 37.25 0 0 0 1.876 1.785 17.837 17.837 0 0 1 1.875 1.948 9.885 9.885 0 0 1 1.456 2.402c.388.898.583 1.954.583 3.167 0 2.064-.505 3.647-1.512 4.751-1.007 1.105-2.494 1.657-4.459 1.657-1.967 0-3.454-.552-4.46-1.657-1.007-1.104-1.511-2.688-1.511-4.751v-1.566h3.786v1.821c0 .923.188 1.566.564 1.93s.88.545 1.51.545c.632 0 1.135-.181 1.512-.545s.564-1.007.564-1.93c0-.874-.195-1.644-.583-2.312a9.648 9.648 0 0 0-1.457-1.893 38.56 38.56 0 0 0-1.875-1.784 17.652 17.652 0 0 1-1.875-1.948 9.875 9.875 0 0 1-1.457-2.403c-.388-.898-.581-1.955-.581-3.168zm18.131 19.369h-4.005V5.42h4.005v10.922h4.55V5.42h4.078v25.486h-4.078V19.983h-4.55v10.923zm11.213-19.369c0-2.063.521-3.647 1.566-4.752 1.043-1.104 2.548-1.656 4.515-1.656 1.966 0 3.47.552 4.514 1.656 1.043 1.105 1.566 2.689 1.566 4.752v13.252c0 2.064-.523 3.647-1.566 4.751-1.044 1.105-2.548 1.657-4.514 1.657-1.966 0-3.472-.552-4.515-1.657-1.044-1.104-1.566-2.688-1.566-4.751V11.537zm4.005 13.507c0 .923.188 1.572.564 1.948s.88.564 1.512.564c.63 0 1.134-.188 1.51-.564s.564-1.025.564-1.948V11.281c0-.922-.188-1.571-.564-1.947-.376-.376-.88-.565-1.51-.565-.632 0-1.135.188-1.512.565-.376.376-.564 1.025-.564 1.947v13.763zm19.115 5.862a10.603 10.603 0 0 0-.146-.474 3.576 3.576 0 0 1-.127-.545 6.594 6.594 0 0 1-.073-.838 34.79 34.79 0 0 1-.018-1.274V23.77c0-1.189-.208-2.026-.62-2.513-.413-.484-1.08-.728-2.002-.728h-1.383v10.376h-4.005V5.42h6.044c2.087 0 3.598.485 4.533 1.456.934.972 1.401 2.439 1.401 4.405v2.003c0 2.622-.874 4.345-2.621 5.17 1.019.412 1.717 1.086 2.093 2.02.376.935.564 2.07.564 3.404v3.932c0 .631.024 1.183.072 1.657.049.473.17.953.365 1.438h-4.077zM79.368 9.061v7.828h1.566c.751 0 1.34-.194 1.766-.583.424-.388.637-1.092.637-2.112v-2.512c0-.923-.163-1.589-.492-2.003-.327-.413-.843-.619-1.546-.619h-1.931zm9.466-3.641h12.379v3.641h-4.188v21.845H93.02V9.061h-4.187V5.42z"/><radialGradient id="c" cx="114.465" cy="18.163" r="10.253" gradientUnits="userSpaceOnUse"><stop offset="0" style="stop-color:#d40005"/><stop offset=".199" style="stop-color:#d4000e"/><stop offset=".586" style="stop-color:#d40019"/><stop offset="1" style="stop-color:#d4001d"/></radialGradient><path fill="url(#c)" d="m114.647 26.209 3.058-20.789h3.678l-3.933 25.486h-5.971L107.547 5.42h4.041l3.059 20.789z"/><radialGradient id="d" cx="125.242" cy="18.163" r="9.121" gradientUnits="userSpaceOnUse"><stop offset="0" style="stop-color:#d40005"/><stop offset=".199" style="stop-color:#d4000e"/><stop offset=".586" style="stop-color:#d40019"/><stop offset="1" style="stop-color:#d4001d"/></radialGradient><path fill="url(#d)" d="M123.24 5.42h4.005v25.486h-4.005V5.42z"/><radialGradient id="e" cx="136.31" cy="18.163" r="10.006" gradientUnits="userSpaceOnUse"><stop offset="0" style="stop-color:#d40005"/><stop offset=".199" style="stop-color:#d4000e"/><stop offset=".586" style="stop-color:#d40019"/><stop offset="1" style="stop-color:#d4001d"/></radialGradient><path fill="url(#e)" d="M130.156 5.42h6.336c2.014 0 3.514.534 4.496 1.602.983 1.068 1.475 2.634 1.475 4.697v12.889c0 2.063-.491 3.629-1.475 4.697-.982 1.068-2.482 1.602-4.496 1.602h-6.336V5.42zm4.005 3.641v18.204h2.258c.631 0 1.128-.182 1.492-.546s.547-1.007.547-1.93V11.537c0-.922-.183-1.566-.547-1.93-.364-.363-.861-.545-1.492-.545h-2.258z"/><radialGradient id="f" cx="150.472" cy="18.163" r="9.803" gradientUnits="userSpaceOnUse"><stop offset="0" style="stop-color:#d40005"/><stop offset=".199" style="stop-color:#d4000e"/><stop offset=".586" style="stop-color:#d40019"/><stop offset="1" style="stop-color:#d4001d"/></radialGradient><path fill="url(#f)" d="M149.016 16.16h5.497v3.642h-5.497v7.463h6.917v3.641h-10.922V5.42h10.922v3.641h-6.917v7.099z"/><radialGradient id="g" cx="164.163" cy="18.163" r="10.17" gradientUnits="userSpaceOnUse"><stop offset="0" style="stop-color:#d40005"/><stop offset=".199" style="stop-color:#d4000e"/><stop offset=".586" style="stop-color:#d40019"/><stop offset="1" style="stop-color:#d4001d"/></radialGradient><path fill="url(#g)" d="M158.083 11.537c0-2.063.521-3.647 1.565-4.752 1.043-1.104 2.549-1.656 4.515-1.656s3.469.552 4.515 1.656c1.043 1.105 1.565 2.689 1.565 4.752v13.252c0 2.064-.522 3.647-1.565 4.751-1.046 1.105-2.549 1.657-4.515 1.657s-3.472-.552-4.515-1.657c-1.045-1.104-1.565-2.688-1.565-4.751V11.537zm4.004 13.507c0 .923.188 1.572.564 1.948.376.376.879.564 1.512.564.63 0 1.133-.188 1.511-.564.375-.376.563-1.025.563-1.948V11.281c0-.922-.188-1.571-.563-1.947-.378-.376-.881-.565-1.511-.565-.633 0-1.136.188-1.512.565-.377.376-.564 1.025-.564 1.947v13.763z"/><radialGradient id="h" cx="178.178" cy="18.163" r="10.137" gradientUnits="userSpaceOnUse"><stop offset="0" style="stop-color:#d40005"/><stop offset=".199" style="stop-color:#d4000e"/><stop offset=".586" style="stop-color:#d40019"/><stop offset="1" style="stop-color:#d4001d"/></radialGradient><path fill="url(#h)" d="M172.317 11.537c0-2.063.49-3.647 1.473-4.752.983-1.104 2.459-1.656 4.425-1.656s3.441.552 4.425 1.656c.982 1.105 1.474 2.689 1.474 4.752v.801h-3.786v-1.056c0-.922-.176-1.571-.528-1.947-.353-.376-.843-.565-1.474-.565-.633 0-1.123.188-1.476.565-.353.376-.528 1.025-.528 1.947 0 .874.194 1.645.582 2.313a9.634 9.634 0 0 0 1.458 1.893 37.62 37.62 0 0 0 1.874 1.785 17.753 17.753 0 0 1 1.876 1.948c.582.704 1.066 1.504 1.455 2.402s.582 1.954.582 3.167c0 2.064-.502 3.647-1.509 4.751-1.009 1.105-2.495 1.657-4.461 1.657s-3.453-.552-4.46-1.657c-1.008-1.104-1.512-2.688-1.512-4.751v-1.566h3.788v1.821c0 .923.186 1.566.564 1.93.374.364.879.545 1.509.545.631 0 1.136-.181 1.512-.545.377-.364.564-1.007.564-1.93 0-.874-.193-1.644-.582-2.312a9.693 9.693 0 0 0-1.458-1.893 38.074 38.074 0 0 0-1.874-1.784 17.652 17.652 0 0 1-1.875-1.948 9.904 9.904 0 0 1-1.456-2.403c-.388-.898-.582-1.955-.582-3.168z"/></svg>