<svg id="Layer_1" data-name="Layer 1" xmlns="http://www.w3.org/2000/svg" xmlns:xlink="http://www.w3.org/1999/xlink" viewBox="0 0 778.89 169.44"><defs><style>.cls-1{fill:none;}.cls-2{fill:#0967b2;}.cls-2,.cls-4{fill-rule:evenodd;}.cls-3,.cls-4{fill:#db2428;}.cls-5{clip-path:url(#clip-path);}.cls-6{fill:#bb2345;}.cls-7{fill:#3eb249;}.cls-8{fill:#8cc33f;}.cls-9{fill:#878eb9;}.cls-10{fill:#616aa3;}.cls-11{fill:#b0b5d0;}.cls-12{fill:#8a1731;}.cls-13{fill:#079247;}.cls-14{fill:#ee365c;}.cls-15{fill:#f6ad41;}.cls-16{fill:#f15734;}.cls-17{fill:#f49223;}.cls-18{fill:#f99f45;}.cls-19{clip-path:url(#clip-path-2);}.cls-20{clip-path:url(#clip-path-3);}.cls-21{clip-path:url(#clip-path-4);}.cls-22{clip-path:url(#clip-path-5);}.cls-23{clip-path:url(#clip-path-6);}.cls-24{clip-path:url(#clip-path-7);}.cls-25{clip-path:url(#clip-path-8);}</style><clipPath id="clip-path"><path class="cls-1" d="M369.48,34V79.27c0,11.06-4.26,14.14-11.07,14.14a26.53,26.53,0,0,1-8.3-1.27l-1.81,13.09a42.21,42.21,0,0,0,11.92,1.7c15.64,0,25.43-7.12,25.43-27.56V34Z"/></clipPath><clipPath id="clip-path-2"><path class="cls-1" d="M662.31,105.77h16.17v-52H662.31Zm-1-67.48c0,4.79,3.51,8.63,8.95,8.63h.1c5.64,0,9.15-3.84,9.15-8.63s-3.51-8.61-9-8.61-9.16,3.72-9.16,8.61"/></clipPath><clipPath id="clip-path-3"><path class="cls-1" d="M425.55,53.72v31a8.72,8.72,0,0,1-.64,3.5,8.6,8.6,0,0,1-8.09,5.65c-5.75,0-8.19-4.57-8.19-12.14v-28H392.45V84.26c0,16.08,7.65,22.67,18.3,22.67,9.36,0,14.26-5.31,16.28-8.51h.32l.75,7.35h14c-.22-4.37-.43-9.9-.43-16.72V53.72Z"/></clipPath><clipPath id="clip-path-4"><path class="cls-1" d="M463.49,89.38c0-6.18,6.6-8.19,15.12-8.19v5.62a11.77,11.77,0,0,1-.32,2.78,8.93,8.93,0,0,1-8.41,6c-3.62,0-6.39-2-6.39-6.16M451.26,57.23l3,10.33a30.45,30.45,0,0,1,14.36-3.84c8,0,9.48,4,9.48,6.71v.64c-18.42,0-30.55,6.39-30.55,19.91,0,8.3,6.28,16,16.81,16,6.17,0,11.5-2.23,14.91-6.38h.31l1,5.22H495.1a67.43,67.43,0,0,1-.85-12.57V75c0-12.24-5.43-22.46-22.77-22.46a42.77,42.77,0,0,0-20.22,4.68"/></clipPath><clipPath id="clip-path-5"><rect class="cls-1" x="502.25" y="30.2" width="16.19" height="75.57"/></clipPath><clipPath id="clip-path-6"><path class="cls-1" d="M541,94.26V74.05h5.53c8.09,0,14.58,2.87,14.58,10.11,0,7.56-6.49,10.43-13.83,10.43a33.11,33.11,0,0,1-6.28-.33m0-48.41a30.23,30.23,0,0,1,6.92-.53c7.34,0,11.48,2.87,11.48,8.3s-4.46,8.84-13.09,8.84H541ZM524.87,35.11v70.33a124.21,124.21,0,0,0,17.56,1.07c14.27,0,23-2.35,28.21-6.5a18.77,18.77,0,0,0,7.45-15.21c0-9.26-6.07-15.54-14.26-17.67v-.21c8-3.08,11.7-8.93,11.7-15.22A15.57,15.57,0,0,0,567,37.55c-5.22-3.09-11.28-4-21.19-4a125,125,0,0,0-21,1.61"/></clipPath><clipPath id="clip-path-7"><path class="cls-1" d="M608.05,63.2c7.34,0,9,6.71,9,10.52H598c.42-4.24,3.18-10.52,10.1-10.52m-25.43,17c0,16.39,10.1,26.61,27.78,26.61a49,49,0,0,0,18.82-3.3l-2.12-11a42.3,42.3,0,0,1-14.37,2.24c-7.55,0-14.16-3.19-14.68-10l33.52.11a40.27,40.27,0,0,0,.53-6.49c0-12.88-6.39-26-23.19-26-18,0-26.29,14.56-26.29,27.76"/></clipPath><clipPath id="clip-path-8"><rect class="cls-1" x="638.02" y="30.2" width="16.18" height="75.57"/></clipPath></defs><title>tribun jualbeli</title><path class="cls-2" d="M160.69,2c.59.23,1.42.25,2,.51-2,24.18-17.84,36.24-46.8,34.4V144.16c20.77-4.61,33.8-17.28,43.54-32.61.83.29,1.62.62,2.44.94-6.35,25-20.61,44.07-45.26,51.79-12.3,3.84-29.87,4.58-44.45,1.7a81.06,81.06,0,0,1-34.05-15c-13.68-10.5-23.53-25.32-25.16-47.17a70,70,0,0,1,1.81-21.57C17.83,69.63,24,59.35,31.42,50.6s16.47-16.1,26-22.67c-12-2.32-25.29-1.47-34.22,2.9-7.45,3.66-13.32,9.49-18,16.1-.57.8-1.57,2.51-2.17,2.64s-1.36-.1-2,0c2.48-16,9.49-27.78,20.92-35.61,11.17-7.63,27.39-11.82,47-10.59,22.32,1.39,41,7.77,61.92,10.68a47.68,47.68,0,0,0,13.41.43c8.47-1.21,12.51-6.28,16.29-12.23.07-.08.05-.24.18-.25M38.93,77.49c-2.15,24.62,7,41.39,20.28,52.3a23,23,0,0,0,6.15-7.62c1.5-3.27,1.92-7.24,1.92-11.74V29.38A28.07,28.07,0,0,1,64.19,29C51.59,40.63,40.84,55.51,38.93,77.49M93.42,33.67V65.33c0,10.67.68,21.39-1.08,30.74-3.42,18.05-15.59,27.6-27.43,37.56,9.94,8.28,25.46,12.93,44.81,11.56V36.56c-5.42-1-10.73-2.12-16.21-3.07,0-.14-.12,0-.09.18"/><path class="cls-2" d="M184.14,22.78c4.28,0,6.8,1.83,8.06,5,2.45,6.17.84,16.09-4.53,18.3-3.82,1.6-8.79,0-10.81-2.77a13.91,13.91,0,0,1-2.11-8.1c0-6.91,1.91-12.43,9.39-12.45"/><path class="cls-2" d="M218.16,61c1.74-2.8,3.21-5.9,6.21-7.52,2.78-1.52,6.69-.63,8.66.82a15.61,15.61,0,0,1,4.68,6.18c4.39,9.43,5.32,25.46,2.37,37.39-1.41,5.67-4.28,11-8.58,13.08a9.32,9.32,0,0,1-9.82-1.3c-2.23-2.13-3.33-5.23-4.21-8.5-.18,3.41,0,7.11-.08,10.61-6.2-.63-12-1.7-18.85-1.68v-2.7h3.52c.19-25.34,0-51,.08-76.42h-3.6V28.28a144.54,144.54,0,0,0,19-1.82c.66-.11.58-.05.62.75.34,5.41,0,11,0,16.34Zm.08,8.93c-.18,3.76-.08,8.07-.08,12.79,0,4.2-.07,8.58.08,12.73a31.21,31.21,0,0,0,.69,5.79c.4,1.61,1.29,3.71,3,3.57,1.48-.13,1.9-2.46,2.14-4.16.8-5.72.39-12.54.39-18.44V69.69a36.39,36.39,0,0,0-.31-5.91c-.33-2.19-.84-4.15-2.68-3.82-3,.55-3.06,6.65-3.22,9.94"/><path class="cls-2" d="M149.21,52V63.84c2.27-5.21,4.47-12.25,12.22-11.43A6.52,6.52,0,0,1,164.89,54c5.12,4.64,5.69,19.08.62,23.93a5.85,5.85,0,0,1-4.38,1.62,7.38,7.38,0,0,1-4.93-2.81c-2-2.43-2.79-6.56-2.77-10.35,0-1,.27-2.32.4-3.46s.5-2.4-.54-3c-1.41.8-1.77,2.64-2.16,4.23C149.92,69.1,150,75.52,150,81.87V107c1.46.17,3.24,0,4.85.08v2.73H129.78v-2.73h3.39c.17-16.79,0-33.87.07-50.76h-3.46v-3c6.46-.49,12.9-1,19.43-1.41"/><path class="cls-2" d="M192.51,51.06c.38,18.32.06,37.29.17,55.91,1.12.15,2.58,0,3.83.07v2.77H172.08V107h3.45c.19-17,0-34.34.08-51.48h-3.53V52.5c7.28,0,13.68-.91,20.43-1.44"/><path class="cls-2" d="M272.47,56.06h-3.83V53c7.24-.07,13.39-1.17,20.69-1.19v55.44h4V110a150.52,150.52,0,0,0-20.13,1.79c-.17-3.61,0-7.55-.08-11.27-2.66,5.07-5.19,10.61-12.12,11.18-8,.69-10.27-5.24-11.49-11.56-1.25-6.49-1-14-1-21.64V56.06H245V53c6.5-.21,13.8-.55,19.88-1.35.5-.07.71-.4.79.51.34,3.87,0,8.85,0,12.48V98.08c0,2.67-.14,6.13,3.11,5.52,2.72-.51,3.41-6.44,3.6-9.4.27-4.59.07-9,.07-12.71Z"/><path class="cls-2" d="M338.19,107h3.67v2.77h-22V107h2.21c.13-11.7.09-24.69.07-37,0-1.83,0-4.08-.14-6s-.52-4.29-2.14-4.42c-1.91-.16-2.68,1.92-3.11,3.38-1.51,4.89-1.07,12-1.07,18.27V107h2.42v2.77H295.93V107h3.36V55.6h-3.36V52.54c6.87-.12,12.74-1.21,19.73-1.21v11c2.06-4.92,4.43-10.19,10.28-11.19a9.45,9.45,0,0,1,6.61,1.3c2.87,1.81,4.26,6,5,10.19.75,4.44.68,9.45.68,14.3,0,10.51,0,20.86,0,30.08"/><path class="cls-3" d="M707.58,106.67a10,10,0,0,1-4.75-1.14,10.19,10.19,0,0,1-3.71-3.42,17.93,17.93,0,0,1-2.41-5.79,35,35,0,0,1-.85-8.22,32.58,32.58,0,0,1,.88-8.1,20.06,20.06,0,0,1,2.38-5.75,10.54,10.54,0,0,1,3.7-3.58,9.47,9.47,0,0,1,4.76-1.26,10.09,10.09,0,0,1,4,.83A17.46,17.46,0,0,1,715,72.15v6.73h-.24c-.3-.36-.69-.77-1.16-1.24a14.81,14.81,0,0,0-1.72-1.44,9.21,9.21,0,0,0-2.07-1.11,6.2,6.2,0,0,0-2.3-.48q-3.28,0-5.27,3.52t-2,10q0,6.32,1.93,9.84t5.34,3.53a7.13,7.13,0,0,0,3.94-1.22,13,13,0,0,0,3.31-3.12H715v6.73c-.41.27-.94.61-1.57,1a9.32,9.32,0,0,1-1.71.88,17.62,17.62,0,0,1-1.93.68,8,8,0,0,1-2.21.25"/><path class="cls-3" d="M739.54,88.07c0,6-1,10.63-3.07,13.89s-4.75,4.89-8.14,4.89-6.25-1.68-8.25-5-3-8-3-13.73q0-8.94,3.09-13.88t8.16-4.94q5.08,0,8.14,4.92t3.07,13.9m-4.37,0q0-6.93-1.78-10.29a5.51,5.51,0,0,0-10.16,0q-1.8,3.36-1.79,10.29c0,4.46.59,7.85,1.79,10.16s2.89,3.46,5.1,3.46,3.86-1.13,5-3.4,1.79-5.67,1.79-10.22"/><path class="cls-3" d="M772.41,105.87V85.26c0-1.64,0-3.15-.13-4.55a12,12,0,0,0-.57-3.26A3.29,3.29,0,0,0,768.18,75a4.73,4.73,0,0,0-2.8,1.13,16.42,16.42,0,0,0-3.09,3.27c0,.36,0,.79.05,1.29s0,1.09,0,1.77v23.45h-4.23V85.26c0-1.64,0-3.15-.13-4.55a12.4,12.4,0,0,0-.56-3.26,4,4,0,0,0-1.28-1.89,3.8,3.8,0,0,0-2.25-.6A4.69,4.69,0,0,0,751,76.17a17.11,17.11,0,0,0-2.92,3.09v26.61h-4.23V70.24h4.23v4a17.73,17.73,0,0,1,3.29-3.65A5.67,5.67,0,0,1,755,69.25a6,6,0,0,1,4,1.43,9.15,9.15,0,0,1,2.63,4.72,20.3,20.3,0,0,1,3.73-4.59,6,6,0,0,1,4-1.56,6.09,6.09,0,0,1,2.94.72,6.24,6.24,0,0,1,2.32,2.31,13.27,13.27,0,0,1,1.56,4,28,28,0,0,1,.55,6.09v23.45Z"/><path class="cls-4" d="M686.1,92.81c7.21-1.34,7.79,11.92,2.06,13.43-3.66,1-6-2.63-6.28-5.59A8.45,8.45,0,0,1,684,93.87a4.26,4.26,0,0,1,2.15-1.06"/><g class="cls-5"><rect class="cls-6" x="327.18" y="16.43" width="65.27" height="125.92"/><polygon class="cls-7" points="358.81 93.45 322.7 43.12 371.4 54.9 358.81 93.45"/><polygon class="cls-8" points="322.7 43.12 361.61 36.83 371.39 54.9 322.7 43.12"/><polygon class="cls-9" points="416.1 53.94 421.05 17.79 452.8 54.32 416.1 53.94"/><polygon class="cls-10" points="421.05 17.79 400.55 66.63 416.1 53.94 421.05 17.79"/><polygon class="cls-11" points="400.55 66.63 452.8 54.32 416.1 53.94 400.55 66.63"/><polygon class="cls-9" points="391.68 -7.49 401.59 20.33 375.57 13.96 391.68 -7.49"/><polygon class="cls-10" points="333.7 90.35 426.3 115.98 356.03 149.16 333.7 90.35"/><polygon class="cls-9" points="426.3 115.98 385.44 161.46 356.03 149.16 426.3 115.98"/><path class="cls-9" d="M385.57,162.06l-.33-.14L354.8,149.19l73.54-34.72Zm-28.31-12.93,28,11.73,39-43.37Z"/><polygon class="cls-12" points="641.17 189.17 645.62 75.1 582.69 142.65 641.17 189.17"/><polygon class="cls-6" points="645.62 75.1 579.4 104.92 582.69 142.65 645.62 75.1"/><polygon class="cls-8" points="617.01 153.53 677.05 120.25 666.45 109.45 617.01 153.53"/><polygon class="cls-7" points="617.01 153.53 662.08 79.68 666.45 109.45 617.01 153.53"/><polygon class="cls-13" points="677.06 120.25 662.08 79.68 666.45 109.45 677.06 120.25"/><polygon class="cls-6" points="424.99 52.64 378.36 39.29 378.27 49.98 424.99 52.64"/><polygon class="cls-14" points="424.99 52.64 365.58 67.05 378.27 49.98 424.99 52.64"/><polygon class="cls-12" points="378.36 39.29 365.58 67.05 378.26 49.98 378.36 39.29"/><polygon class="cls-15" points="704.43 187.5 591.78 124.78 591.78 176.43 704.43 187.5"/><polygon class="cls-16" points="591.78 124.78 559.42 216.41 591.78 176.43 591.78 124.78"/><path class="cls-16" d="M558,219l34.3-97.12v54.75Zm33.3-91.28-30.42,86.14,30.42-37.59Z"/><polygon class="cls-16" points="394.71 73.33 455.8 48.21 447.05 142.08 394.71 73.33"/><path class="cls-16" d="M447.43,143.4,393.92,73.11l62.45-25.68-.07.83ZM395.5,73.54l51.18,67.22L455.23,49Z"/><polygon class="cls-15" points="455.8 48.21 348.64 62.78 394.71 73.33 455.8 48.21"/><polygon class="cls-17" points="348.64 62.78 447.06 142.08 394.71 73.33 348.64 62.78"/><path class="cls-18" d="M450,145.05,346.64,61.8,395,72.88l.11.15Zm-99.31-81.3,93.53,75.36L394.42,73.78Z"/><polygon class="cls-6" points="615.57 61.49 615.57 36.6 647.04 53.1 615.57 61.49"/><polygon class="cls-12" points="615.57 36.6 605.29 76.03 615.57 61.49 615.57 36.6"/><polygon class="cls-14" points="605.29 76.03 647.04 53.1 615.57 61.49 605.29 76.03"/><polygon class="cls-6" points="362.88 84.2 405.39 90.75 361.7 127.44 362.88 84.2"/><polygon class="cls-12" points="405.39 90.75 348.23 65.61 362.88 84.2 405.39 90.75"/><polygon class="cls-14" points="348.24 65.61 361.7 127.44 362.88 84.2 348.24 65.61"/><polygon class="cls-9" points="551.19 -22.3 581.5 -17.63 550.35 8.53 551.19 -22.3"/><polygon class="cls-11" points="540.75 -35.55 550.35 8.53 551.2 -22.31 540.75 -35.55"/><path class="cls-11" d="M550.73,12.66,539.8-37.56l11.9,15.09Zm-9-46.2L550,4.4l.73-26.54Z"/><polygon class="cls-9" points="604.23 20.88 639.53 8.8 620.74 54.59 604.23 20.88"/><polygon class="cls-10" points="639.53 8.79 585.49 12.5 604.23 20.88 639.53 8.79"/><polygon class="cls-11" points="585.49 12.5 620.74 54.59 604.23 20.88 585.49 12.5"/><path class="cls-11" d="M623,58.06l-39.29-46.9L604.6,20.5l.08.16ZM587.27,13.84l31.21,37.27L603.86,21.26Z"/><polygon class="cls-17" points="310.35 107.86 310.35 74.41 360.89 91.13 310.35 107.86"/><path class="cls-18" d="M309.85,108.55V73.72l52.63,17.41Zm1-33.45v32.06l48.45-16Z"/><polygon class="cls-8" points="405.13 182.09 426.49 138.39 376.39 78.73 405.13 182.09"/><polygon class="cls-7" points="405.13 182.09 451.32 146.99 426.49 138.39 405.13 182.09"/><polygon class="cls-13" points="451.32 146.99 376.39 78.73 425.69 140.04 451.32 146.99"/><polygon class="cls-15" points="330.95 137.04 299.34 126.11 318.62 114.92 330.95 137.04"/><polygon class="cls-11" points="336.61 42.96 305 32.02 330.66 9.61 336.61 42.96"/><path class="cls-11" d="M337.25,43.71,304,32.22,331,8.65ZM306,31.83l30,10.38-5.65-31.64Z"/><polygon class="cls-16" points="285.78 194.84 299.59 167.82 333.51 202.19 285.78 194.84"/><path class="cls-16" d="M334.93,202.92,285,195.23,299.46,167Zm-48.39-8.47,45.55,7-32.37-32.81Z"/><polygon class="cls-12" points="523.02 35.64 523.02 7.27 547.61 7.27 523.02 35.64"/><polygon class="cls-6" points="318.54 173.54 339.96 153.7 357.16 172.26 318.54 173.54"/><polygon class="cls-11" points="440.13 57.11 494.41 57.11 529.65 -22.34 440.13 57.11"/><path class="cls-11" d="M494.73,57.61H438.82l92.23-81.85Zm-53.28-1h52.63l34.18-77Z"/><polygon class="cls-9" points="440.13 57.11 497.95 86.21 494.41 57.11 440.13 57.11"/><polygon class="cls-10" points="497.95 86.2 529.65 -22.34 492.35 57.11 497.95 86.2"/><polygon class="cls-17" points="511.86 96.98 567.65 135.66 543.86 76.29 511.86 96.98"/><path class="cls-18" d="M568.73,137,511,97,544.1,75.54Zm-56-40,53.81,37.32L543.62,77Z"/><polygon class="cls-16" points="567.65 135.66 619.12 86.32 543.86 76.28 567.65 135.66"/><path class="cls-16" d="M567.46,136.54,543.08,75.68,620.21,86ZM544.64,76.89l23.2,57.9L618,86.68Z"/><polygon class="cls-16" points="511.86 96.98 571.29 11.33 543.86 76.29 511.86 96.98"/><path class="cls-16" d="M510,98.77,573.62,7.09,544.26,76.62ZM569,15.57,513.72,95.18,543.46,76Z"/><polygon class="cls-15" points="619.12 86.33 571.29 11.33 543.86 76.29 619.12 86.33"/><polygon class="cls-13" points="480.81 60 444.69 9.67 493.39 21.45 480.81 60"/><polygon class="cls-7" points="444.69 9.67 483.61 3.38 493.39 21.45 444.69 9.67"/><polygon class="cls-8" points="363.53 48.04 383.46 44.88 378.25 76.58 363.53 48.04"/><polygon class="cls-10" points="645.39 27.75 680.89 37 656.18 59.29 645.39 27.75"/><polygon class="cls-17" points="637.01 50.2 671.06 59.07 647.36 80.45 637.01 50.2"/><path class="cls-18" d="M647.13,81.33l-10.9-31.84,35.85,9.33Zm-9.35-30.41,9.8,28.66L670,59.32Z"/><polygon class="cls-16" points="639.71 44.95 658.13 36.7 661.38 68.66 639.71 44.95"/><path class="cls-16" d="M662,70.11,638.88,44.77,658.56,36Zm-21.48-25L660.73,67.2l-3-29.76Z"/></g><g class="cls-19"><rect class="cls-15" x="657.13" y="20.89" width="25.64" height="100.03"/><polygon class="cls-15" points="572.04 117.01 588.25 126.27 572.66 134.81 572.04 117.01"/><polygon class="cls-6" points="451.87 10.77 330.9 -2.92 412.25 -58.38 451.87 10.77"/><polygon class="cls-10" points="580.25 114.87 553.91 1.09 630.11 56.91 580.25 114.87"/><polygon class="cls-9" points="553.91 1.09 626.19 18.36 630.11 56.91 553.91 1.09"/><polygon class="cls-15" points="596.17 13.09 648.11 57.98 654.59 44.3 596.17 13.09"/><polygon class="cls-17" points="596.17 13.09 681.03 29.93 654.59 44.3 596.17 13.09"/><path class="cls-18" d="M654.59,44.87,593,12l89.52,17.76ZM599.38,14.24l55.21,29.49,25-13.58Z"/><polygon class="cls-16" points="648.11 57.98 681.03 29.93 654.59 44.3 648.11 57.98"/><path class="cls-16" d="M646.66,59.87l7.55-15.93L685,27.21ZM655,44.66l-5.41,11.43,27.5-23.43Z"/><polygon class="cls-6" points="686.34 -3.2 599.74 17.81 618.23 -7.07 686.34 -3.2"/><polygon class="cls-12" points="618.36 -22.66 599.74 17.81 618.23 -7.07 618.36 -22.66"/><polygon class="cls-6" points="630.61 92.05 630.61 62.84 667.53 82.2 630.61 92.05"/><polygon class="cls-12" points="630.61 62.84 618.54 109.12 630.61 92.05 630.61 62.84"/><polygon class="cls-14" points="618.54 109.12 667.53 82.2 630.61 92.05 618.54 109.12"/><polygon class="cls-9" points="419.7 37.81 385 49.08 404.08 4.6 419.7 37.81"/><polygon class="cls-10" points="385 49.09 437.9 46.29 419.7 37.81 385 49.09"/><polygon class="cls-11" points="437.9 46.29 404.08 4.6 419.7 37.81 437.9 46.29"/><polygon class="cls-6" points="539.54 65.36 531.83 32.81 584.86 37.43 539.54 65.36"/><polygon class="cls-7" points="499.39 141.9 494.54 121.41 515.33 127.3 499.39 141.9"/><polygon class="cls-14" points="446.9 110.48 468.32 90.64 485.51 109.2 446.9 110.48"/><polygon class="cls-8" points="374.49 10.84 355.33 -16.58 379.09 -33.17 374.49 10.84"/><polygon class="cls-8" points="540.74 80.15 595.02 80.15 630.27 0.7 540.74 80.15"/><polygon class="cls-7" points="540.74 80.15 598.57 109.25 595.02 80.15 540.74 80.15"/><polygon class="cls-13" points="598.56 109.25 630.27 0.7 592.97 80.15 598.56 109.25"/><polygon class="cls-17" points="483.17 93.42 512.68 60.22 472.24 71.02 483.17 93.42"/><path class="cls-18" d="M483.05,94.31,471.52,70.69,514.16,59.3ZM473,71.34l10.33,21.19,27.91-31.4Z"/><polygon class="cls-16" points="512.68 60.22 484.68 22.91 472.24 71.02 512.68 60.22"/><path class="cls-16" d="M471.54,71.72l12.91-49.94,29.08,38.73ZM484.9,24l-12,46.27,38.9-10.39Z"/><polygon class="cls-16" points="483.17 93.42 432.2 48.09 472.24 71.02 483.17 93.42"/><path class="cls-16" d="M484.73,95.48,428.27,45.27l44.35,25.39ZM436.12,50.92l45.49,40.45-9.75-20Z"/><polygon class="cls-15" points="484.67 22.91 432.19 48.1 472.24 71.01 484.67 22.91"/><polygon class="cls-11" points="727.61 3.75 684.46 -11.25 716.43 -45.05 727.61 3.75"/><polygon class="cls-11" points="684.46 -11.25 645.06 8.82 688.69 -44.11 684.46 -11.25"/><polygon class="cls-10" points="727.61 3.75 645.06 8.82 684.46 -11.25 727.61 3.75"/><polygon class="cls-11" points="533.92 28.48 494.54 106.37 535.72 106.37 533.92 28.48"/><polygon class="cls-9" points="533.92 28.48 565.72 125.16 535.72 106.37 533.92 28.48"/><polygon class="cls-10" points="494.54 106.37 565.72 125.16 535.72 106.37 494.54 106.37"/><polygon class="cls-8" points="487.65 81.45 487.65 51.07 515.95 66.26 487.65 81.45"/><polygon class="cls-7" points="334.9 35.54 334.9 15.36 365.39 25.45 334.9 35.54"/><polygon class="cls-12" points="687.18 18.42 707.11 15.27 701.91 46.96 687.18 18.42"/><polygon class="cls-15" points="357 45.61 382.41 72.08 349.68 78.13 357 45.61"/><polygon class="cls-12" points="354.7 67.52 388.76 76.39 365.05 97.77 354.7 67.52"/><polygon class="cls-9" points="357.41 62.26 375.83 54.02 379.07 85.97 357.41 62.26"/><polygon class="cls-6" points="428.82 70.18 429.61 106.67 401.84 80.5 428.82 70.18"/><polygon class="cls-12" points="429.61 106.66 442.47 49.59 428.82 70.18 429.61 106.66"/><polygon class="cls-14" points="442.47 49.6 401.84 80.5 428.82 70.18 442.47 49.6"/></g><g class="cls-20"><rect class="cls-16" x="387.7" y="34.25" width="61.79" height="90.87"/><path class="cls-16" d="M450,125.62H387.2V33.75H450Zm-61.79-1H449V34.75H388.2Z"/><polygon class="cls-7" points="194.07 39.18 157.96 -11.15 206.66 0.62 194.07 39.18"/><polygon class="cls-8" points="157.96 -11.16 196.87 -17.45 206.66 0.63 157.96 -11.16"/><polygon class="cls-9" points="251.36 -0.33 256.31 -36.48 288.06 0.05 251.36 -0.33"/><polygon class="cls-10" points="256.31 -36.48 235.81 12.36 251.36 -0.33 256.31 -36.48"/><polygon class="cls-11" points="235.81 12.36 288.06 0.05 251.36 -0.33 235.81 12.36"/><polygon class="cls-6" points="261.05 207.82 140.08 194.14 221.43 138.67 261.05 207.82"/><polygon class="cls-14" points="140.08 194.14 182.19 129.12 221.43 138.67 140.08 194.14"/><polygon class="cls-10" points="168.96 36.08 261.56 61.71 191.29 94.88 168.96 36.08"/><polygon class="cls-9" points="261.57 61.71 220.7 107.19 191.29 94.88 261.57 61.71"/><path class="cls-9" d="M220.83,107.78l-.33-.13L190.06,94.91,263.6,60.2ZM192.52,94.86l28,11.73,39-43.37Z"/><polygon class="cls-12" points="476.43 134.9 480.89 20.83 417.95 88.38 476.43 134.9"/><polygon class="cls-6" points="480.89 20.83 414.66 50.65 417.95 88.38 480.89 20.83"/><polygon class="cls-8" points="452.28 99.26 512.32 65.98 501.71 55.18 452.28 99.26"/><polygon class="cls-7" points="452.28 99.26 497.34 25.41 501.71 55.18 452.28 99.26"/><polygon class="cls-13" points="512.32 65.98 497.34 25.41 501.7 55.18 512.32 65.98"/><polygon class="cls-14" points="260.25 -1.64 200.84 12.77 213.53 -4.29 260.25 -1.64"/><polygon class="cls-12" points="213.62 -14.99 200.84 12.77 213.53 -4.29 213.62 -14.99"/><polygon class="cls-15" points="539.69 133.23 427.04 70.5 427.04 122.15 539.69 133.23"/><polygon class="cls-17" points="539.69 133.23 394.68 162.13 427.04 122.15 539.69 133.23"/><path class="cls-18" d="M393.42,162.89l33.4-41.26,116.27,11.43Zm33.84-40.21-31.32,38.69,140.35-28Z"/><polygon class="cls-16" points="427.04 70.5 394.68 162.13 427.04 122.15 427.04 70.5"/><path class="cls-16" d="M393.24,164.71l34.3-97.12v54.74Zm33.3-91.29-30.42,86.14L426.54,122Z"/><polygon class="cls-16" points="229.97 19.06 291.06 -6.07 282.31 87.81 229.97 19.06"/><path class="cls-16" d="M282.69,89.13,229.18,18.84,291.64-6.84ZM230.76,19.27l51.17,67.22,8.56-91.78Z"/><polygon class="cls-15" points="291.06 -6.07 183.9 8.5 229.97 19.06 291.06 -6.07"/><polygon class="cls-17" points="183.9 8.5 282.31 87.81 229.97 19.06 183.9 8.5"/><path class="cls-18" d="M285.21,90.78,181.9,7.53l48.36,11.08.11.14ZM185.9,9.47l93.52,75.37L229.68,19.5Z"/><polygon class="cls-6" points="450.83 7.22 450.83 -17.68 482.3 -1.17 450.83 7.22"/><polygon class="cls-12" points="450.83 -17.67 440.55 21.76 450.83 7.22 450.83 -17.67"/><polygon class="cls-14" points="440.56 21.76 482.3 -1.18 450.84 7.21 440.56 21.76"/><polygon class="cls-6" points="198.14 29.92 240.65 36.48 196.96 73.17 198.14 29.92"/><polygon class="cls-12" points="240.65 36.48 183.49 11.35 198.14 29.92 240.65 36.48"/><polygon class="cls-14" points="183.49 11.34 196.96 73.17 198.14 29.93 183.49 11.34"/><polygon class="cls-9" points="439.49 -33.39 474.8 -45.48 456 0.31 439.49 -33.39"/><polygon class="cls-11" points="420.75 -41.77 456 0.31 439.49 -33.39 420.75 -41.77"/><path class="cls-11" d="M458.25,3.79,419-43.12l20.88,9.34.08.17ZM422.53-40.43,453.74-3.16,439.12-33Z"/><polygon class="cls-17" points="145.62 53.58 145.62 20.14 196.15 36.86 145.62 53.58"/><path class="cls-18" d="M145.12,54.27V19.44l52.62,17.42Zm1-33.44V52.89l48.44-16Z"/><polygon class="cls-8" points="240.4 127.81 261.76 84.12 211.65 24.46 240.4 127.81"/><polygon class="cls-7" points="240.4 127.81 286.57 92.71 261.76 84.12 240.4 127.81"/><polygon class="cls-13" points="286.57 92.71 211.65 24.46 260.94 85.77 286.57 92.71"/><polygon class="cls-15" points="166.21 82.77 134.6 71.83 153.89 60.65 166.21 82.77"/><polygon class="cls-16" points="121.04 140.57 134.85 113.55 168.78 147.92 121.04 140.57"/><path class="cls-16" d="M170.19,148.65,120.28,141l14.44-28.25Zm-48.39-8.47,45.56,7L135,114.39Z"/><polygon class="cls-12" points="461.17 145.06 483.47 134.04 488.97 173.25 461.17 145.06"/><polygon class="cls-6" points="153.81 119.26 175.22 99.43 192.42 117.99 153.81 119.26"/><polygon class="cls-8" points="183.66 207.89 164.51 180.48 188.26 163.88 183.66 207.89"/><polygon class="cls-11" points="275.39 2.84 329.67 2.84 364.92 -76.61 275.39 2.84"/><path class="cls-11" d="M330,3.34H274.07l92.24-81.86Zm-53.28-1h52.63l34.19-77Z"/><polygon class="cls-9" points="275.39 2.84 333.21 31.93 329.67 2.84 275.39 2.84"/><polygon class="cls-10" points="333.21 31.93 364.92 -76.61 327.61 2.84 333.21 31.93"/><polygon class="cls-17" points="347.12 42.7 402.91 81.39 379.12 22.01 347.12 42.7"/><path class="cls-18" d="M404,82.75,346.22,42.69l33.14-21.43Zm-56-40L401.83,80,378.88,22.76Z"/><polygon class="cls-16" points="402.91 81.39 454.38 32.05 379.12 22.01 402.91 81.39"/><path class="cls-16" d="M402.73,82.26,378.34,21.4l77.13,10.29ZM379.9,22.62l23.2,57.9,50.18-48.11Z"/><polygon class="cls-16" points="347.12 42.7 406.55 -42.95 379.12 22.01 347.12 42.7"/><path class="cls-16" d="M345.27,44.5l63.61-91.68L379.52,22.35Zm58.94-83.21L349,40.91l29.75-19.24Z"/><polygon class="cls-15" points="454.38 32.05 406.54 -42.95 379.12 22.01 454.38 32.05"/><polygon class="cls-11" points="536.78 200.81 493.63 185.81 525.61 152.01 536.78 200.81"/><polygon class="cls-11" points="493.63 185.81 454.24 205.88 497.86 152.94 493.63 185.81"/><polygon class="cls-9" points="497.87 152.94 525.61 152 493.63 185.81 497.87 152.94"/><polygon class="cls-13" points="316.06 5.73 279.95 -44.6 328.65 -32.82 316.06 5.73"/><polygon class="cls-8" points="198.79 -6.24 218.72 -9.38 213.51 22.31 198.79 -6.24"/><polygon class="cls-10" points="480.65 -26.52 516.15 -17.27 491.44 5.02 480.65 -26.52"/><polygon class="cls-17" points="472.27 -4.07 506.32 4.8 482.61 26.18 472.27 -4.07"/><path class="cls-18" d="M482.39,27.06,471.5-4.79l35.85,9.34ZM473-3.35l9.8,28.65L505.3,5.05Z"/><polygon class="cls-16" points="474.97 -9.33 493.39 -17.57 496.64 14.38 474.97 -9.33"/><path class="cls-16" d="M497.29,15.84,474.14-9.5l19.68-8.81Zm-21.48-25L496,12.93l-3-29.76Z"/></g><g class="cls-21"><rect class="cls-15" x="435.2" y="40.56" width="67.05" height="87.93"/><polygon class="cls-7" points="189.46 48.43 153.34 -1.9 202.04 9.88 189.46 48.43"/><polygon class="cls-8" points="153.34 -1.9 192.25 -8.19 202.04 9.88 153.34 -1.9"/><polygon class="cls-9" points="246.74 8.92 251.69 -27.23 283.45 9.3 246.74 8.92"/><polygon class="cls-10" points="251.7 -27.23 231.19 21.61 246.75 8.92 251.7 -27.23"/><polygon class="cls-11" points="231.19 21.62 283.45 9.31 246.74 8.92 231.19 21.62"/><polygon class="cls-6" points="256.43 217.08 135.46 203.39 216.81 147.93 256.43 217.08"/><polygon class="cls-14" points="135.46 203.39 177.57 138.38 216.81 147.93 135.46 203.39"/><polygon class="cls-10" points="164.34 45.34 256.95 70.97 186.67 104.14 164.34 45.34"/><polygon class="cls-9" points="256.95 70.97 216.08 116.44 186.67 104.14 256.95 70.97"/><path class="cls-9" d="M216.22,117l-.33-.14-30.45-12.73L259,69.45ZM187.9,104.11l28,11.73,39-43.36Z"/><polygon class="cls-12" points="471.82 144.15 476.27 30.09 413.33 97.64 471.82 144.15"/><polygon class="cls-6" points="476.27 30.09 410.04 59.91 413.33 97.64 476.27 30.09"/><polygon class="cls-8" points="447.66 108.52 507.7 75.24 497.09 64.44 447.66 108.52"/><polygon class="cls-7" points="447.66 108.52 492.72 34.66 497.09 64.44 447.66 108.52"/><polygon class="cls-13" points="507.7 75.23 492.73 34.66 497.09 64.44 507.7 75.23"/><polygon class="cls-6" points="255.63 7.62 209 -5.73 208.91 4.96 255.63 7.62"/><polygon class="cls-14" points="255.63 7.62 196.23 22.03 208.91 4.96 255.63 7.62"/><polygon class="cls-12" points="209 -5.73 196.23 22.03 208.91 4.97 209 -5.73"/><polygon class="cls-15" points="535.08 142.48 422.43 79.76 422.43 131.41 535.08 142.48"/><polygon class="cls-17" points="535.08 142.48 390.07 171.39 422.43 131.41 535.08 142.48"/><path class="cls-18" d="M388.81,172.15l33.4-41.26,116.27,11.42Zm33.84-40.21-31.32,38.69,140.35-28Z"/><polygon class="cls-16" points="422.43 79.76 390.07 171.39 422.43 131.41 422.43 79.76"/><path class="cls-16" d="M388.63,174l34.3-97.12v54.75Zm33.3-91.28-30.42,86.14,30.42-37.59Z"/><polygon class="cls-16" points="225.35 28.31 286.45 3.19 277.7 97.07 225.35 28.31"/><path class="cls-16" d="M278.07,98.39l-53.51-70.3L287,2.41ZM226.15,28.52l51.17,67.22L285.87,4Z"/><polygon class="cls-15" points="286.44 3.19 179.28 17.76 225.35 28.31 286.44 3.19"/><polygon class="cls-17" points="179.28 17.76 277.7 97.06 225.35 28.31 179.28 17.76"/><path class="cls-18" d="M280.59,100,177.28,16.79l48.36,11.08.11.14Zm-99.3-81.31,93.52,75.36L225.06,28.76Z"/><polygon class="cls-6" points="446.22 16.47 446.22 -8.42 477.68 8.08 446.22 16.47"/><polygon class="cls-12" points="446.22 -8.42 435.94 31.02 446.22 16.47 446.22 -8.42"/><polygon class="cls-14" points="435.94 31.02 477.68 8.08 446.22 16.47 435.94 31.02"/><polygon class="cls-6" points="193.53 39.18 236.03 45.74 192.34 82.43 193.53 39.18"/><polygon class="cls-12" points="236.03 45.74 178.88 20.6 193.53 39.18 236.03 45.74"/><polygon class="cls-14" points="178.88 20.6 192.34 82.43 193.53 39.18 178.88 20.6"/><polygon class="cls-9" points="434.88 -24.14 470.18 -36.22 451.38 9.57 434.88 -24.14"/><polygon class="cls-11" points="416.13 -32.52 451.38 9.57 434.87 -24.14 416.13 -32.52"/><path class="cls-11" d="M453.64,13.05,414.36-33.86l20.88,9.34.08.16ZM417.91-31.18,449.12,6.09,434.5-23.75Z"/><polygon class="cls-17" points="141 62.84 141 29.39 191.54 46.12 141 62.84"/><path class="cls-18" d="M140.5,63.53V28.7l52.63,17.42Zm1-33.45V62.15l48.45-16Z"/><polygon class="cls-8" points="235.78 137.07 257.14 93.37 207.04 33.72 235.78 137.07"/><polygon class="cls-7" points="235.78 137.07 281.96 101.97 257.14 93.37 235.78 137.07"/><polygon class="cls-13" points="281.96 101.97 207.03 33.72 256.33 95.02 281.96 101.97"/><polygon class="cls-15" points="161.59 92.03 129.99 81.09 149.27 69.91 161.59 92.03"/><polygon class="cls-16" points="116.43 149.82 130.24 122.8 164.16 157.18 116.43 149.82"/><path class="cls-16" d="M165.57,157.9l-49.9-7.69L130.11,122Zm-48.38-8.47,45.55,7-32.37-32.81Z"/><polygon class="cls-12" points="456.55 154.31 478.85 143.29 484.36 182.5 456.55 154.31"/><polygon class="cls-6" points="149.19 128.52 170.61 108.68 187.8 127.24 149.19 128.52"/><polygon class="cls-11" points="270.78 12.09 325.05 12.09 360.3 -67.36 270.78 12.09"/><path class="cls-11" d="M325.38,12.59H269.46l92.23-81.85Zm-53.28-1h52.63l34.18-77Z"/><polygon class="cls-9" points="270.78 12.09 328.6 41.19 325.05 12.09 270.78 12.09"/><polygon class="cls-10" points="328.59 41.19 360.3 -67.36 323 12.1 328.59 41.19"/><polygon class="cls-17" points="342.51 51.96 398.3 90.65 374.5 31.27 342.51 51.96"/><path class="cls-18" d="M399.38,92,341.61,51.94l33.13-21.42Zm-56-40,53.8,37.32L374.27,32Z"/><polygon class="cls-16" points="398.3 90.65 449.76 41.31 374.51 31.27 398.3 90.65"/><path class="cls-16" d="M398.11,91.52,373.72,30.66,450.86,41ZM375.29,31.88l23.2,57.89,50.18-48.1Z"/><polygon class="cls-16" points="342.51 51.96 401.93 -33.69 374.5 31.27 342.51 51.96"/><path class="cls-16" d="M340.65,53.75l63.62-91.68L374.91,31.6Zm59-83.2L344.36,50.17,374.1,30.93Z"/><polygon class="cls-15" points="449.76 41.31 401.93 -33.69 374.51 31.27 449.76 41.31"/><polygon class="cls-11" points="532.17 210.06 489.02 195.06 520.99 161.26 532.17 210.06"/><polygon class="cls-11" points="489.02 195.06 449.62 215.13 493.25 162.2 489.02 195.06"/><polygon class="cls-9" points="493.25 162.2 521 161.26 489.02 195.06 493.25 162.2"/><polygon class="cls-13" points="311.45 14.99 275.34 -35.35 324.04 -23.57 311.45 14.99"/><polygon class="cls-8" points="194.17 3.02 214.11 -0.13 208.9 31.56 194.17 3.02"/><polygon class="cls-10" points="476.04 -17.26 511.54 -8.02 486.82 14.28 476.04 -17.26"/><polygon class="cls-17" points="467.65 5.19 501.71 14.06 478 35.44 467.65 5.19"/><path class="cls-18" d="M477.77,36.32,466.88,4.47l35.85,9.34ZM468.43,5.9l9.8,28.66,22.45-20.25Z"/><polygon class="cls-16" points="470.36 -0.07 488.78 -8.31 492.02 23.64 470.36 -0.07"/><path class="cls-16" d="M492.67,25.09,469.52-.25,489.21-9ZM471.19.1l20.18,22.09-3-29.76Z"/></g><g class="cls-22"><rect class="cls-16" x="478.61" y="-6.82" width="62.34" height="129.62"/><path class="cls-16" d="M541.44,123.3H478.11V-7.32h63.33Zm-62.33-1h61.33V-6.32H479.11Z"/><polygon class="cls-15" points="481.51 164.59 497.73 173.85 482.14 182.38 481.51 164.59"/><polygon class="cls-6" points="361.35 58.34 240.38 44.66 321.73 -10.81 361.35 58.34"/><polygon class="cls-14" points="240.38 44.66 282.49 -20.36 321.73 -10.81 240.38 44.66"/><polygon class="cls-10" points="489.73 162.45 463.38 48.66 539.59 104.48 489.73 162.45"/><polygon class="cls-9" points="463.38 48.66 535.67 65.93 539.59 104.48 463.38 48.66"/><polygon class="cls-15" points="505.65 60.67 557.59 105.56 564.07 91.88 505.65 60.67"/><polygon class="cls-17" points="505.65 60.67 590.51 77.51 564.07 91.88 505.65 60.67"/><path class="cls-18" d="M564.07,92.44,502.44,59.52,592,77.29ZM508.85,61.82l55.21,29.49,25-13.58Z"/><polygon class="cls-16" points="557.59 105.56 590.5 77.51 564.07 91.87 557.59 105.56"/><path class="cls-16" d="M556.14,107.45l7.55-15.94,30.78-16.73Zm8.31-15.22L559,103.67l27.49-23.43Z"/><polygon class="cls-14" points="595.81 44.38 527.83 24.92 527.71 40.51 595.81 44.38"/><polygon class="cls-6" points="595.81 44.38 509.21 65.39 527.71 40.51 595.81 44.38"/><polygon class="cls-12" points="527.83 24.92 509.21 65.39 527.71 40.51 527.83 24.92"/><polygon class="cls-17" points="640 -16.25 494.99 12.66 527.34 -27.32 640 -16.25"/><path class="cls-18" d="M493.73,13.42l33.4-41.27L643.4-16.42ZM527.56-26.8,496.24,11.9l140.35-28Z"/><polygon class="cls-16" points="527.34 -78.97 494.98 12.66 527.34 -27.32 527.34 -78.97"/><path class="cls-16" d="M493.55,15.23l34.29-97.12v54.74Zm33.29-91.29L496.42,10.08,526.84-27.5Z"/><polygon class="cls-6" points="540.09 139.62 540.09 110.41 577.01 129.78 540.09 139.62"/><polygon class="cls-12" points="540.09 110.41 528.02 156.69 540.09 139.62 540.09 110.41"/><polygon class="cls-14" points="528.02 156.69 577.01 129.78 540.09 139.62 528.02 156.69"/><polygon class="cls-9" points="329.18 85.39 294.47 96.66 313.56 52.18 329.18 85.39"/><polygon class="cls-10" points="294.47 96.66 347.37 93.87 329.18 85.39 294.47 96.66"/><polygon class="cls-11" points="347.38 93.87 313.56 52.18 329.18 85.39 347.38 93.87"/><polygon class="cls-6" points="449.02 112.93 441.31 80.39 494.33 85 449.02 112.93"/><polygon class="cls-7" points="408.87 189.47 404.02 168.99 424.81 174.88 408.87 189.47"/><polygon class="cls-12" points="561.47 -4.42 583.77 -15.44 589.27 23.77 561.47 -4.42"/><polygon class="cls-14" points="356.38 158.06 377.8 138.22 394.99 156.78 356.38 158.06"/><polygon class="cls-8" points="283.96 58.41 264.81 31 288.56 14.4 283.96 58.41"/><polygon class="cls-8" points="450.22 127.73 504.5 127.73 539.75 48.28 450.22 127.73"/><polygon class="cls-7" points="450.22 127.73 508.04 156.82 504.5 127.73 450.22 127.73"/><polygon class="cls-13" points="508.04 156.82 539.75 48.27 502.44 127.73 508.04 156.82"/><polygon class="cls-17" points="392.64 141 422.16 107.79 381.72 118.59 392.64 141"/><path class="cls-18" d="M392.52,141.89,381,118.26l42.64-11.38Zm-10.09-23,10.34,21.2,27.91-31.4Z"/><polygon class="cls-16" points="422.16 107.79 394.15 70.49 381.72 118.59 422.16 107.79"/><path class="cls-16" d="M381,119.3l12.91-49.94L423,108.08Zm13.36-47.68-12,46.27,38.9-10.39Z"/><polygon class="cls-16" points="392.64 141 341.67 95.67 381.72 118.59 392.64 141"/><path class="cls-16" d="M394.2,143.06,337.75,92.84l44.35,25.39ZM345.6,98.49,391.09,139l-9.75-20Z"/><polygon class="cls-15" points="394.15 70.48 341.67 95.67 381.72 118.59 394.15 70.48"/><polygon class="cls-11" points="637.09 51.32 593.93 36.33 625.91 2.53 637.09 51.32"/><polygon class="cls-11" points="593.93 36.33 554.54 56.4 598.16 3.46 593.93 36.33"/><polygon class="cls-9" points="598.16 3.47 625.91 2.53 593.94 36.33 598.16 3.47"/><polygon class="cls-10" points="637.09 51.32 554.54 56.4 593.93 36.33 637.09 51.32"/><polygon class="cls-11" points="443.4 76.06 404.02 153.94 445.19 153.94 443.4 76.06"/><polygon class="cls-9" points="443.4 76.06 475.19 172.73 445.19 153.94 443.4 76.06"/><polygon class="cls-10" points="404.02 153.95 475.2 172.73 445.19 153.95 404.02 153.95"/><polygon class="cls-8" points="397.13 129.03 397.13 98.64 425.43 113.84 397.13 129.03"/><polygon class="cls-7" points="244.37 83.11 244.37 62.93 274.87 73.02 244.37 83.11"/><polygon class="cls-12" points="596.66 65.99 616.59 62.84 611.38 94.54 596.66 65.99"/><polygon class="cls-15" points="266.48 93.19 291.89 119.66 259.16 125.71 266.48 93.19"/><polygon class="cls-12" points="264.18 115.1 298.24 123.97 274.53 145.35 264.18 115.1"/><polygon class="cls-9" points="266.89 109.84 285.31 101.59 288.55 133.55 266.89 109.84"/><polygon class="cls-6" points="338.3 117.75 339.09 154.24 311.32 128.07 338.3 117.75"/><polygon class="cls-12" points="339.09 154.24 351.95 97.17 338.3 117.75 339.09 154.24"/><polygon class="cls-14" points="351.95 97.17 311.32 128.07 338.3 117.75 351.95 97.17"/></g><g class="cls-23"><rect class="cls-8" x="520.94" y="20.47" width="58.84" height="104.24"/><polygon class="cls-6" points="372.83 146.19 251.86 132.5 333.21 77.05 372.83 146.19"/><polygon class="cls-14" points="251.86 132.51 293.97 67.49 333.21 77.04 251.86 132.51"/><polygon class="cls-10" points="280.75 -25.55 373.35 0.08 303.07 33.26 280.75 -25.55"/><polygon class="cls-9" points="373.35 0.08 332.48 45.55 303.07 33.25 373.35 0.08"/><path class="cls-9" d="M332.62,46.15,301.85,33.28,375.38-1.43ZM304.3,33.23,332.35,45l39-43.37Z"/><polygon class="cls-10" points="501.21 250.3 474.87 136.51 551.07 192.34 501.21 250.3"/><polygon class="cls-9" points="474.87 136.51 547.15 153.78 551.07 192.34 474.87 136.51"/><polygon class="cls-12" points="588.22 73.27 592.67 -40.8 529.74 26.75 588.22 73.27"/><polygon class="cls-6" points="592.67 -40.8 526.44 -10.98 529.74 26.75 592.67 -40.8"/><polygon class="cls-15" points="517.13 148.52 569.08 193.41 575.54 179.73 517.13 148.52"/><polygon class="cls-17" points="517.13 148.52 601.99 165.36 575.54 179.73 517.13 148.52"/><path class="cls-18" d="M575.55,180.3l-61.63-32.93,89.53,17.77Zm-55.22-30.63,55.21,29.49,25-13.58Z"/><polygon class="cls-16" points="569.07 193.41 601.99 165.36 575.55 179.72 569.07 193.41"/><path class="cls-16" d="M567.63,195.3l7.54-15.94L606,162.64Zm8.3-15.21-5.41,11.43L598,168.09Z"/><polygon class="cls-8" points="564.06 37.63 624.1 4.35 613.49 -6.45 564.06 37.63"/><polygon class="cls-7" points="564.06 37.63 609.12 -36.22 613.49 -6.45 564.06 37.63"/><polygon class="cls-13" points="624.1 4.35 609.12 -36.22 613.49 -6.45 624.1 4.35"/><polygon class="cls-14" points="607.3 132.23 539.31 112.77 539.19 128.36 607.3 132.23"/><polygon class="cls-6" points="607.3 132.23 520.7 153.24 539.19 128.36 607.3 132.23"/><polygon class="cls-12" points="539.31 112.77 520.7 153.24 539.19 128.36 539.31 112.77"/><polygon class="cls-15" points="651.48 71.6 538.83 8.88 538.83 60.52 651.48 71.6"/><polygon class="cls-17" points="651.48 71.6 506.47 100.51 538.83 60.52 651.48 71.6"/><path class="cls-18" d="M505.21,101.27,538.61,60,654.88,71.43ZM539,61.05l-31.32,38.7,140.36-28Z"/><polygon class="cls-16" points="538.82 8.88 506.46 100.51 538.82 60.53 538.82 8.88"/><path class="cls-16" d="M505,103.08,539.32,6V60.7Zm33.29-91.29L507.9,97.93l30.42-37.58Z"/><polygon class="cls-16" points="341.76 -42.57 402.85 -67.69 394.1 26.18 341.76 -42.57"/><path class="cls-16" d="M394.48,27.5,341-42.79l62.46-25.68-.07.82ZM342.55-42.36l51.17,67.22,8.55-91.78Z"/><polygon class="cls-17" points="295.69 -53.13 394.1 26.18 341.75 -42.57 295.69 -53.13"/><path class="cls-18" d="M397,29.15,293.68-54.1,342-43l.11.15Zm-99.3-81.3,93.52,75.36L341.47-42.12Z"/><polygon class="cls-9" points="340.66 173.24 305.96 184.51 325.04 140.03 340.66 173.24"/><polygon class="cls-11" points="358.86 181.72 325.04 140.03 340.66 173.24 358.86 181.72"/><polygon class="cls-6" points="309.93 -31.7 352.44 -25.15 308.75 11.54 309.93 -31.7"/><polygon class="cls-14" points="295.28 -50.29 308.75 11.54 309.93 -31.7 295.28 -50.29"/><polygon class="cls-6" points="460.5 200.78 452.79 168.24 505.82 172.85 460.5 200.78"/><polygon class="cls-8" points="352.18 66.19 373.54 22.48 323.44 -37.16 352.18 66.19"/><polygon class="cls-7" points="352.18 66.19 398.36 31.08 373.54 22.48 352.18 66.19"/><polygon class="cls-13" points="398.36 31.08 323.44 -37.17 372.73 24.14 398.36 31.08"/><polygon class="cls-15" points="277.99 21.14 246.39 10.21 265.67 -0.98 277.99 21.14"/><polygon class="cls-16" points="232.83 78.94 246.63 51.92 280.56 86.29 232.83 78.94"/><path class="cls-16" d="M282,87l-49.91-7.69,14.44-28.26Zm-48.39-8.47,45.55,7L246.77,52.76Z"/><polygon class="cls-12" points="572.95 83.43 595.25 72.41 600.76 111.62 572.95 83.43"/><polygon class="cls-6" points="265.59 57.63 287.01 37.8 304.2 56.36 265.59 57.63"/><polygon class="cls-8" points="295.44 146.26 276.29 118.85 300.05 102.25 295.44 146.26"/><polygon class="cls-8" points="461.71 215.58 515.98 215.58 551.23 136.13 461.71 215.58"/><polygon class="cls-13" points="519.52 244.67 551.23 136.13 513.93 215.58 519.52 244.67"/><polygon class="cls-17" points="458.91 -18.93 514.7 19.76 490.9 -39.62 458.91 -18.93"/><path class="cls-18" d="M515.78,21.12,458-18.94l33.13-21.43Zm-56-40L513.62,18.4,490.67-38.87Z"/><polygon class="cls-16" points="514.7 19.76 566.16 -29.58 490.9 -39.62 514.7 19.76"/><path class="cls-16" d="M514.51,20.64,490.12-40.23l77.14,10.29ZM491.69-39l23.2,57.9,50.18-48.11Z"/><polygon class="cls-16" points="433.65 195.64 405.63 158.34 393.2 206.44 433.65 195.64"/><path class="cls-16" d="M392.5,207.15l12.91-49.94,29.08,38.72Zm13.36-47.68-12,46.27,38.9-10.39Z"/><polygon class="cls-15" points="405.63 158.34 353.16 183.52 393.2 206.44 405.63 158.34"/><polygon class="cls-11" points="648.57 139.17 605.42 124.18 637.39 90.38 648.57 139.17"/><polygon class="cls-11" points="605.42 124.18 566.02 144.25 609.65 91.31 605.42 124.18"/><polygon class="cls-9" points="609.65 91.31 637.4 90.38 605.42 124.18 609.65 91.31"/><polygon class="cls-10" points="648.57 139.17 566.02 144.25 605.42 124.18 648.57 139.17"/><polygon class="cls-11" points="454.88 163.91 415.5 241.8 456.68 241.8 454.88 163.91"/><polygon class="cls-9" points="454.88 163.91 486.68 260.58 456.68 241.8 454.88 163.91"/><polygon class="cls-7" points="255.86 170.96 255.86 150.78 286.35 160.87 255.86 170.96"/><polygon class="cls-12" points="608.14 153.84 628.08 150.69 622.87 182.39 608.14 153.84"/></g><g class="cls-24"><rect class="cls-8" x="582.62" y="45.32" width="49.48" height="86.95"/><polygon class="cls-15" points="572.04 117.01 588.25 126.27 572.66 134.81 572.04 117.01"/><polygon class="cls-6" points="451.87 10.77 330.9 -2.92 412.25 -58.38 451.87 10.77"/><polygon class="cls-10" points="580.25 114.87 553.91 1.09 630.11 56.91 580.25 114.87"/><polygon class="cls-9" points="553.91 1.09 626.19 18.36 630.11 56.91 553.91 1.09"/><polygon class="cls-15" points="596.17 13.09 648.11 57.98 654.59 44.3 596.17 13.09"/><polygon class="cls-17" points="596.17 13.09 681.03 29.93 654.59 44.3 596.17 13.09"/><path class="cls-18" d="M654.59,44.87,593,12l89.52,17.76ZM599.38,14.24l55.21,29.49,25-13.58Z"/><polygon class="cls-16" points="648.11 57.98 681.03 29.93 654.59 44.3 648.11 57.98"/><path class="cls-16" d="M646.66,59.87l7.55-15.93L685,27.21ZM655,44.66l-5.41,11.43,27.5-23.43Z"/><polygon class="cls-6" points="686.34 -3.2 599.74 17.81 618.23 -7.07 686.34 -3.2"/><polygon class="cls-12" points="618.36 -22.66 599.74 17.81 618.23 -7.07 618.36 -22.66"/><polygon class="cls-6" points="630.61 92.05 630.61 62.84 667.53 82.2 630.61 92.05"/><polygon class="cls-12" points="630.61 62.84 618.54 109.12 630.61 92.05 630.61 62.84"/><polygon class="cls-14" points="618.54 109.12 667.53 82.2 630.61 92.05 618.54 109.12"/><polygon class="cls-9" points="419.7 37.81 385 49.08 404.08 4.6 419.7 37.81"/><polygon class="cls-10" points="385 49.09 437.9 46.29 419.7 37.81 385 49.09"/><polygon class="cls-11" points="437.9 46.29 404.08 4.6 419.7 37.81 437.9 46.29"/><polygon class="cls-6" points="539.54 65.36 531.83 32.81 584.86 37.43 539.54 65.36"/><polygon class="cls-7" points="499.39 141.9 494.54 121.41 515.33 127.3 499.39 141.9"/><polygon class="cls-14" points="446.9 110.48 468.32 90.64 485.51 109.2 446.9 110.48"/><polygon class="cls-8" points="374.49 10.84 355.33 -16.58 379.09 -33.17 374.49 10.84"/><polygon class="cls-8" points="540.74 80.15 595.02 80.15 630.27 0.7 540.74 80.15"/><polygon class="cls-7" points="540.74 80.15 598.57 109.25 595.02 80.15 540.74 80.15"/><polygon class="cls-13" points="598.56 109.25 630.27 0.7 592.97 80.15 598.56 109.25"/><polygon class="cls-17" points="483.17 93.42 512.68 60.22 472.24 71.02 483.17 93.42"/><path class="cls-18" d="M483.05,94.31,471.52,70.69,514.16,59.3ZM473,71.34l10.33,21.19,27.91-31.4Z"/><polygon class="cls-16" points="512.68 60.22 484.68 22.91 472.24 71.02 512.68 60.22"/><path class="cls-16" d="M471.54,71.72l12.91-49.94,29.08,38.73ZM484.9,24l-12,46.27,38.9-10.39Z"/><polygon class="cls-16" points="483.17 93.42 432.2 48.09 472.24 71.02 483.17 93.42"/><path class="cls-16" d="M484.73,95.48,428.27,45.27l44.35,25.39ZM436.12,50.92l45.49,40.45-9.75-20Z"/><polygon class="cls-15" points="484.67 22.91 432.19 48.1 472.24 71.01 484.67 22.91"/><polygon class="cls-11" points="727.61 3.75 684.46 -11.25 716.43 -45.05 727.61 3.75"/><polygon class="cls-11" points="684.46 -11.25 645.06 8.82 688.69 -44.11 684.46 -11.25"/><polygon class="cls-10" points="727.61 3.75 645.06 8.82 684.46 -11.25 727.61 3.75"/><polygon class="cls-11" points="533.92 28.48 494.54 106.37 535.72 106.37 533.92 28.48"/><polygon class="cls-9" points="533.92 28.48 565.72 125.16 535.72 106.37 533.92 28.48"/><polygon class="cls-10" points="494.54 106.37 565.72 125.16 535.72 106.37 494.54 106.37"/><polygon class="cls-8" points="487.65 81.45 487.65 51.07 515.95 66.26 487.65 81.45"/><polygon class="cls-7" points="334.9 35.54 334.9 15.36 365.39 25.45 334.9 35.54"/><polygon class="cls-12" points="687.18 18.42 707.11 15.27 701.91 46.96 687.18 18.42"/><polygon class="cls-15" points="357 45.61 382.41 72.08 349.68 78.13 357 45.61"/><polygon class="cls-12" points="354.7 67.52 388.76 76.39 365.05 97.77 354.7 67.52"/><polygon class="cls-9" points="357.41 62.26 375.83 54.02 379.07 85.97 357.41 62.26"/><polygon class="cls-6" points="428.82 70.18 429.61 106.67 401.84 80.5 428.82 70.18"/><polygon class="cls-12" points="429.61 106.66 442.47 49.59 428.82 70.18 429.61 106.66"/><polygon class="cls-14" points="442.47 49.6 401.84 80.5 428.82 70.18 442.47 49.6"/></g><g class="cls-25"><rect class="cls-16" x="632.1" y="22.15" width="27.13" height="93.31"/><path class="cls-16" d="M659.73,116H631.6V21.65h28.13Zm-27.13-1h26.13V22.65H632.6Z"/><polygon class="cls-15" points="572.04 117.01 588.25 126.27 572.66 134.81 572.04 117.01"/><polygon class="cls-6" points="451.87 10.77 330.9 -2.92 412.25 -58.38 451.87 10.77"/><polygon class="cls-10" points="580.25 114.87 553.91 1.09 630.11 56.91 580.25 114.87"/><polygon class="cls-9" points="553.91 1.09 626.19 18.36 630.11 56.91 553.91 1.09"/><polygon class="cls-15" points="596.17 13.09 648.11 57.98 654.59 44.3 596.17 13.09"/><polygon class="cls-17" points="596.17 13.09 681.03 29.93 654.59 44.3 596.17 13.09"/><path class="cls-18" d="M654.59,44.87,593,12l89.52,17.76ZM599.38,14.24l55.21,29.49,25-13.58Z"/><polygon class="cls-16" points="648.11 57.98 681.03 29.93 654.59 44.3 648.11 57.98"/><path class="cls-16" d="M646.66,59.87l7.55-15.93L685,27.21ZM655,44.66l-5.41,11.43,27.5-23.43Z"/><polygon class="cls-6" points="686.34 -3.2 599.74 17.81 618.23 -7.07 686.34 -3.2"/><polygon class="cls-12" points="618.36 -22.66 599.74 17.81 618.23 -7.07 618.36 -22.66"/><polygon class="cls-6" points="630.61 92.05 630.61 62.84 667.53 82.2 630.61 92.05"/><polygon class="cls-12" points="630.61 62.84 618.54 109.12 630.61 92.05 630.61 62.84"/><polygon class="cls-14" points="618.54 109.12 667.53 82.2 630.61 92.05 618.54 109.12"/><polygon class="cls-9" points="419.7 37.81 385 49.08 404.08 4.6 419.7 37.81"/><polygon class="cls-10" points="385 49.09 437.9 46.29 419.7 37.81 385 49.09"/><polygon class="cls-11" points="437.9 46.29 404.08 4.6 419.7 37.81 437.9 46.29"/><polygon class="cls-6" points="539.54 65.36 531.83 32.81 584.86 37.43 539.54 65.36"/><polygon class="cls-7" points="499.39 141.9 494.54 121.41 515.33 127.3 499.39 141.9"/><polygon class="cls-14" points="446.9 110.48 468.32 90.64 485.51 109.2 446.9 110.48"/><polygon class="cls-8" points="374.49 10.84 355.33 -16.58 379.09 -33.17 374.49 10.84"/><polygon class="cls-8" points="540.74 80.15 595.02 80.15 630.27 0.7 540.74 80.15"/><polygon class="cls-7" points="540.74 80.15 598.57 109.25 595.02 80.15 540.74 80.15"/><polygon class="cls-13" points="598.56 109.25 630.27 0.7 592.97 80.15 598.56 109.25"/><polygon class="cls-17" points="483.17 93.42 512.68 60.22 472.24 71.02 483.17 93.42"/><path class="cls-18" d="M483.05,94.31,471.52,70.69,514.16,59.3ZM473,71.34l10.33,21.19,27.91-31.4Z"/><polygon class="cls-16" points="512.68 60.22 484.68 22.91 472.24 71.02 512.68 60.22"/><path class="cls-16" d="M471.54,71.72l12.91-49.94,29.08,38.73ZM484.9,24l-12,46.27,38.9-10.39Z"/><polygon class="cls-16" points="483.17 93.42 432.2 48.09 472.24 71.02 483.17 93.42"/><path class="cls-16" d="M484.73,95.48,428.27,45.27l44.35,25.39ZM436.12,50.92l45.49,40.45-9.75-20Z"/><polygon class="cls-15" points="484.67 22.91 432.19 48.1 472.24 71.01 484.67 22.91"/><polygon class="cls-11" points="727.61 3.75 684.46 -11.25 716.43 -45.05 727.61 3.75"/><polygon class="cls-11" points="684.46 -11.25 645.06 8.82 688.69 -44.11 684.46 -11.25"/><polygon class="cls-10" points="727.61 3.75 645.06 8.82 684.46 -11.25 727.61 3.75"/><polygon class="cls-11" points="533.92 28.48 494.54 106.37 535.72 106.37 533.92 28.48"/><polygon class="cls-9" points="533.92 28.48 565.72 125.16 535.72 106.37 533.92 28.48"/><polygon class="cls-10" points="494.54 106.37 565.72 125.16 535.72 106.37 494.54 106.37"/><polygon class="cls-8" points="487.65 81.45 487.65 51.07 515.95 66.26 487.65 81.45"/><polygon class="cls-7" points="334.9 35.54 334.9 15.36 365.39 25.45 334.9 35.54"/><polygon class="cls-12" points="687.18 18.42 707.11 15.27 701.91 46.96 687.18 18.42"/><polygon class="cls-15" points="357 45.61 382.41 72.08 349.68 78.13 357 45.61"/><polygon class="cls-12" points="354.7 67.52 388.76 76.39 365.05 97.77 354.7 67.52"/><polygon class="cls-9" points="357.41 62.26 375.83 54.02 379.07 85.97 357.41 62.26"/><polygon class="cls-6" points="428.82 70.18 429.61 106.67 401.84 80.5 428.82 70.18"/><polygon class="cls-12" points="429.61 106.66 442.47 49.59 428.82 70.18 429.61 106.66"/><polygon class="cls-14" points="442.47 49.6 401.84 80.5 428.82 70.18 442.47 49.6"/></g></svg>