<svg xmlns="http://www.w3.org/2000/svg" xmlns:xlink="http://www.w3.org/1999/xlink" width="40" height="40" xml:space="preserve"><path fill-rule="evenodd" clip-rule="evenodd" fill="#FFF" d="M39.549 30.278c0 4.506-4.782 9.193-8.888 9.193H9.338c-4.125 0-8.887-4.83-8.887-8.852V9.38C.451 5.444 4.983.912 8.995.528h21.667c4.382 0 8.887 4.992 8.887 9.193v20.557z"/><path fill-rule="evenodd" clip-rule="evenodd" fill="#17A6B5" d="M12.895 38.013h14.132v1.459H12.895z"/><defs><path id="a" d="M15.188 10.47c-3.448-.642-6.206.268-8.181 3.183-.115.171-.231.465-.495.343-.254-.117-.104-.391-.066-.592.694-3.715 3.431-6.232 7.311-6.834 3.432-.531 6.729.211 10.037.922 1.49.32 2.976.657 4.501.779 1.461.117 2.604-.381 3.415-1.614.128-.193.22-.544.534-.384.278.141.092.45.056.675-.507 3.214-2.599 4.911-6.199 5.034-1.256.044-1.256.044-1.256 1.267 0 5.134 0 10.267.002 15.399 0 1.008-.002.998.985.666 2.446-.828 4.233-2.461 5.652-4.561.129-.193.172-.641.563-.43.346.184.089.49.02.738-1.586 5.668-5.937 8.729-11.854 8.42-3.582-.184-6.747-1.322-9.21-3.982-3.449-3.727-3.712-9.551-.731-14.016 1.138-1.703 2.575-3.115 4.199-4.348.235-.177.53-.294.717-.665zm1.496 17.414c2.026 1.602 4.304 1.959 6.704 1.91.586-.012.465-.412.465-.75.002-5.045.001-10.089.001-15.135 0-2.01-.007-1.979-1.943-2.4-.623-.134-.683.061-.679.585.019 2.55 0 5.1.012 7.648.009 2.347-.688 4.397-2.356 6.103-.681.695-1.412 1.326-2.204 2.039zm.34-10.047c0-2.137.005-4.273-.009-6.407-.001-.242.172-.584-.224-.706-.338-.104-.5.17-.688.357-2.204 2.203-3.484 4.828-3.644 7.967-.148 2.93.619 5.523 2.7 7.678.467.482.732.406 1.102-.066.623-.789.749-1.715.757-2.666.018-2.054.006-4.104.006-6.157z"/></defs><use xlink:href="#a" overflow="visible" fill-rule="evenodd" clip-rule="evenodd" fill="#17A6B5"/><clipPath id="b"><use xlink:href="#a" overflow="visible"/></clipPath><g clip-path="url(#b)"><circle fill-rule="evenodd" clip-rule="evenodd" fill="#28409A" cx="24.742" cy="24.118" r="35.406"/><path opacity=".2" fill="#17A6B5" d="M20.334 16.925c.175-.307 4.504-2.375 4.565-2.654C27.159 3.896 17.179-4.96 6.562-4.96c-10.551 0-19.113 8.501-19.218 19.028 3.466-5.037 9.269-8.34 15.844-8.34 7.817 0 14.539 4.668 17.544 11.366"/><path opacity=".4" fill="#17A6B5" d="M12.795 15.373c2.832 0 5.516.62 7.937 1.721-3.005-6.698-9.727-11.366-17.544-11.366-6.576 0-12.378 3.303-15.844 8.34-2.13 3.094-3.379 6.842-3.379 10.883 0 7.787 4.632 14.486 11.29 17.508-1.078-2.398-1.682-5.059-1.682-7.861 0-1.902.281-3.738.795-5.475 2.358-7.95 9.714-13.75 18.427-13.75z"/><path opacity=".6" fill="#17A6B5" d="M11.362 42.351c-.97-2.297-1.508-4.82-1.508-7.469 0-7.695 4.524-14.326 11.053-17.398.112-.052.223-.106.336-.156-.168-.082-.341-.156-.511-.233-2.421-1.101-5.105-1.721-7.937-1.721-10.616 0-19.223 8.606-19.223 19.224 0 2.803.604 5.463 1.682 7.861C-1.74 49.154 4.981 53.82 12.795 53.82c2.792 0 5.441-.6 7.834-1.67-4.151-2.036-7.461-5.522-9.267-9.799z"/><path opacity=".8" fill="#17A6B5" d="M29.077 15.657c-2.791 0-5.44.6-7.834 1.67-6.71 3-11.389 9.727-11.389 17.555 0 7.584 4.396 14.141 10.776 17.268 2.551 1.25 5.417 1.953 8.447 1.953 10.618 0 19.224-8.604 19.224-19.221s-8.606-19.225-19.224-19.225z"/><circle fill-rule="evenodd" clip-rule="evenodd" fill="#17A6B5" cx="43.03" cy="27.28" r="19.223"/></g></svg>