<?xml version="1.0" encoding="UTF-8"?>
<svg width="512" height="512" version="1.1" viewBox="0 0 135 135" xmlns="http://www.w3.org/2000/svg">
 <g stroke-width=".265">
  <g>
   <path d="m135 3e-5 -135-3e-5v135h135z" fill="#695716"/>
   <path d="m46.8 4e-3 88.7-4e-3s-52.9 20.3-52 30.8c-16.4-4.2-29.8-15.7-36.7-30.8zm36.7 30.8c2.6 28.9 24.1 52.3 52 57.8l-4e-3 -88.6s-33.5 35.4-52 30.8z" fill="#f5d03d"/>
   <path d="m135 17.4c-9.96 9.36-23.3 15.1-38.1 15.1-4.79 2.64e-4 -9.45-0.606-13.9-1.75-0.175-1.94-0.279-3.91-0.279-5.9-5.3e-4 -8.81 1.76-17.2 4.94-24.9l47.3-0.0021z" fill="#e0b300"/>
   <path d="m90.8 135-90.8 4e-3s-8.29e-4 -16.9-4e-3 -87.1c48.9-0.0021 88.8 38.7 90.8 87.1z" fill="#ebca47"/>
   <path d="m0.00529 113c7.58-7.68 18.1-12.4 29.8-12.4 20.6-1e-3 37.7 14.9 41.2 34.4l-70.9 3e-3z" fill="#cca300"/>
  </g>
  <path d="m112 67.7c8.6e-4 24.3-19.7 43.9-43.9 43.9-24.3 8.6e-4 -43.9-19.7-43.9-43.9-0.0011-24.3 19.7-43.9 43.9-43.9 24.3-0.0011 43.9 19.7 43.9 43.9z" fill="#fff"/>
 </g>
 <g fill="#695716" stroke-width=".264" aria-label="B">
  <path d="m52.7 89.6v-44.8h15.7q8.16 0 12.4 3.14 4.22 3.11 4.22 9.14 0 3.29-1.69 5.82-1.69 2.49-4.71 3.66 3.45 0.862 5.42 3.48 2 2.62 2 6.4 0 6.47-4.13 9.79-4.13 3.32-11.8 3.39zm9.24-19.5v12.1h7.91q3.26 0 5.08-1.54 1.85-1.57 1.85-4.31 0-6.16-6.37-6.25zm0-6.53h6.83q6.99-0.123 6.99-5.57 0-3.05-1.79-4.37-1.75-1.35-5.57-1.35h-6.47z"/>
 </g>
 <style type="text/css">.st0{fill:#691640;}
	.st1 { 
}
	.st2 { 
}
	.st3{fill:#FFFFFF;}</style>
 <style type="text/css">.st0{fill:#691640;}
	.st1{fill:#B81466;}
	.st2{fill:#99004D;}
	.st3{fill:#FFFFFF;}</style>
</svg>
