<svg xmlns="http://www.w3.org/2000/svg" viewBox="0 0 900.74 209.66"><defs><style>.cls-1{fill:#0066b2;}.cls-2,.cls-3{fill:#db1f26;}.cls-3{fill-rule:evenodd;}.cls-4{fill:#7dc400;}</style></defs><title>tribunshopping</title><g id="Layer_2" data-name="Layer 2"><g id="Layer_1-2" data-name="Layer 1"><path class="cls-1" d="M226.49,53.56a8.72,8.72,0,0,0,7.9-5.78,24.58,24.58,0,0,0,2.18-10.2q0-16.35-10.46-16.35c-7,0-10.9,4.85-10.9,14.72v1.58C215,48.49,218.86,53.5,226.49,53.56Z"/><path class="cls-1" d="M278.77,59.39a4,4,0,0,0-1.69,0q-6.39,0-11.29,11.77V22.92a148.83,148.83,0,0,1-23.44,2.62v3.65h4.31V134.72h-4.31v3.82h6.27c7.25.92,12.7,1.63,16.35,2.29v-15c2.13,9.86,6.06,15,11.72,15.31a10.22,10.22,0,0,0,4.26-.87,9.26,9.26,0,0,0,2.78-1.85c6.81-6.05,10.19-19,10.19-38.81a92.91,92.91,0,0,0-2.78-23C288.47,65.77,284.33,60.1,278.77,59.39Zm-5.46,63.77c-.32,5.46-1.3,8-2.88,8-2.95,0-4.37-5.73-4.37-17.12v-29c0-10.63,1.53-15.86,4.47-15.91,2,0,3,4,3,11.93v32.71c-.22,3.81-.32,7-.49,9.37Z"/><path class="cls-1" d="M406.21,134.67V88.39q0-23.39-7.47-27.59a20.7,20.7,0,0,0-2.83-1.3,16.83,16.83,0,0,0-2.84,0c-5.94,0-10.9,5.18-14,15.48V59.66c-3.1,0-8.34.38-15.59,1.14-3.1.28-5.83.44-8.06.55v4h4v69.34h-4v3.81h26.71v-3.76h-3V85.66a43.32,43.32,0,0,1,1.42-10.19c.76-3,1.85-4.42,3.32-4.42h.33q2.78,0,2.78,9.32v54.51h-2.78v3.77h26.49v-4Z"/><path class="cls-1" d="M347.88,134.61v-75a77.42,77.42,0,0,0-11.82.76,98.86,98.86,0,0,1-11.78.88v4h4.31V113a51.81,51.81,0,0,1-1.2,11.77c-.76,3.38-2,5.12-3.6,5.07a2.12,2.12,0,0,1-2.34-1.31,21.75,21.75,0,0,1-.71-7.74V59.39a199.26,199.26,0,0,1-23.66,1.91v4h4v45.24a72,72,0,0,0,2.62,21.21c1.75,5.45,4.63,8.5,8.78,8.88a9,9,0,0,0,2.07,0c6.05,0,10.9-5.12,14.72-15.31v15.31l10.9-1.58a89.81,89.81,0,0,1,12.37-.76v-3.71Z"/><path class="cls-1" d="M199.07,60h-1c-5.45,0-9.59,5.45-12.65,15.75V59.39L162.22,61.3v4.08h4.15v69.29h-4.15v3.81h29.93v-3.7h-5.83V93.89A105,105,0,0,1,187,80.27c1-6.6,2.18-9.87,3.38-9.87v.38l.54.65-.1,7.15c0,11.17,3.05,17.38,9.26,18.53,3.16,0,5.45-2.07,7.42-6.32a29.8,29.8,0,0,0,1.9-10.52A39.2,39.2,0,0,0,207.14,68C205.45,62.6,202.78,60,199.07,60Z"/><path class="cls-1" d="M236,134.67V59.39l-10.9,1.2a111.42,111.42,0,0,1-13.3.76v4h4.15v69.29h-4.09v3.81h28.56v-3.81Z"/><path class="cls-1" d="M167.73,166.94a76.84,76.84,0,0,1-29.38,13.68V48.05a31.54,31.54,0,0,0,3.38.44h5a49.92,49.92,0,0,0,34.4-10.91,44.23,44.23,0,0,0,14-31.5l-2.73-1.2a35.27,35.27,0,0,1-10.9,12.26,25.28,25.28,0,0,1-14,3.6A174.75,174.75,0,0,1,133,15.29c-8.13-1.85-14.4-3.22-18.81-4C104.44,9.4,96.54,8.09,90.65,7.38A131.92,131.92,0,0,0,75,6.35Q42.3,6.35,23.28,21A62.35,62.35,0,0,0,0,63.64H2.78a63.84,63.84,0,0,1,21.1-21.42A53.69,53.69,0,0,1,51.4,35.4c2.5,0,5,.13,7.47.38,2.78.28,5.83.66,9.21,1.26A136.33,136.33,0,0,0,27.85,77.21a88.41,88.41,0,0,0-13.62,47.21,84.58,84.58,0,0,0,6.16,32.7,76.9,76.9,0,0,0,18.37,26.5A94.11,94.11,0,0,0,70.37,203a110.6,110.6,0,0,0,38.92,6.6A84.45,84.45,0,0,0,163.8,192a89.78,89.78,0,0,0,30-50.48l-3-1.25A96.62,96.62,0,0,1,167.73,166.94ZM70.1,163a71.18,71.18,0,0,1-18.48-24.59,75.75,75.75,0,0,1-6.1-31,90.44,90.44,0,0,1,7.35-37.07A102.85,102.85,0,0,1,76.31,38.24l3.82.6v99.91A37.64,37.64,0,0,1,77.9,153,26.37,26.37,0,0,1,70.1,163Zm61,19h-7.58a88.51,88.51,0,0,1-26.27-3.71A57.82,57.82,0,0,1,77,167.37a106.94,106.94,0,0,0,27.25-29.16,67.72,67.72,0,0,0,7.36-33.09V43.74l19.57,3.87Z"/><path class="cls-2" d="M826.49,138.75a10.83,10.83,0,0,1-5.12-1.19,11.78,11.78,0,0,1-4-3.71,19.26,19.26,0,0,1-2.56-6.22,38,38,0,0,1-.93-8.77,34.12,34.12,0,0,1,1-8.72,21.48,21.48,0,0,1,2.51-6.16,11.7,11.7,0,0,1,4-3.87,10.43,10.43,0,0,1,5.12-1.31,10.82,10.82,0,0,1,4.31.87,18.26,18.26,0,0,1,3.65,2.07v7.2h0a23.82,23.82,0,0,0-3.05-2.89,16,16,0,0,0-2.23-1.2,7,7,0,0,0-2.46-.49,6.31,6.31,0,0,0-5.45,3.76,22.18,22.18,0,0,0-2.12,10.9,22.4,22.4,0,0,0,2,10.52,6.39,6.39,0,0,0,5.78,3.82,7.5,7.5,0,0,0,4.2-1.31,13.88,13.88,0,0,0,3.54-3.38h0v7L833,136.79l-1.85.93a14.05,14.05,0,0,1-2.07.71A8.93,8.93,0,0,1,826.49,138.75Z"/><path class="cls-2" d="M860.78,118.8a28.14,28.14,0,0,1-3.27,14.89,9.93,9.93,0,0,1-17.61,0A29,29,0,0,1,836.69,119,27.81,27.81,0,0,1,840,104.09a9.87,9.87,0,0,1,17.5,0A28.49,28.49,0,0,1,860.78,118.8Zm-4.69,0a25,25,0,0,0-1.9-10.9,5.91,5.91,0,0,0-5.46-3.6,6,6,0,0,0-5.45,3.6,25,25,0,0,0-1.9,10.9,24.72,24.72,0,0,0,1.9,10.91,5.9,5.9,0,0,0,10.91,0A24.57,24.57,0,0,0,856.09,118.8Z"/><path class="cls-2" d="M896.05,137.88V111.17a14.84,14.84,0,0,0-.6-3.49,4.05,4.05,0,0,0-1.42-2,3.94,3.94,0,0,0-2.4-.66,4.93,4.93,0,0,0-3,1.2,17.22,17.22,0,0,0-3.33,3.49v28.18h-4.58V111.17a14.84,14.84,0,0,0-.6-3.49,4.1,4.1,0,0,0-1.41-2,3.94,3.94,0,0,0-2.4-.66,5.07,5.07,0,0,0-3.11,1.31,18.53,18.53,0,0,0-3.11,3.33v28.23h-4.52V99.73h4.52V104a18.19,18.19,0,0,1,3.55-3.93,6,6,0,0,1,3.81-1.41,6.26,6.26,0,0,1,4.25,1.58,9.54,9.54,0,0,1,2.84,5.07,22.19,22.19,0,0,1,4-5,6.56,6.56,0,0,1,4.25-1.68,6,6,0,0,1,3.16.81,6.38,6.38,0,0,1,2.51,2.46,15.54,15.54,0,0,1,1.69,4.36,31.16,31.16,0,0,1,.6,6.54v25.07Z"/><path class="cls-3" d="M803.44,123.87c7.74-1.41,8.34,12.81,2.23,14.45-3.92,1-6.43-2.84-6.76-6a9.11,9.11,0,0,1,2.24-7.3A4.43,4.43,0,0,1,803.44,123.87Z"/><path class="cls-4" d="M464.18,22.58q0-5.85-5.35-11-7.69-7.35-21.24-7.36-11.88,0-26.26,5.19a41,41,0,0,0-13,7.36q-8.54,7.35-8.54,14.71,0,9.87,12.55,17.73Q407,52,421.12,58.46a203.49,203.49,0,0,1,20.65,10.45q9.87,6,13.63,12.88t3.77,12.71q0,8.37-5.52,17.06-9.7,15.56-28.44,26.76-21.57,13.05-52,13.05-29.28,0-46.5-14.89-13.38-11.37-13.38-29.27,0-11.37,8.28-25.09t20.32-19.4a6.57,6.57,0,0,1,3.76-.67c.84.23.14,1.28-2.09,3.18a50.76,50.76,0,0,0-11.54,12.54,58.45,58.45,0,0,0-9.36,32,32.36,32.36,0,0,0,6.35,19.9q11.37,15.23,39.47,17.23c2.12.22,5.27.34,9.45.34A88.9,88.9,0,0,0,395,144.93a81.62,81.62,0,0,0,20.83-7.45q21.57-11.37,27.93-29.43a29.45,29.45,0,0,0,2-10.37q0-11.37-10.21-20.07Q430.06,73.26,413.09,66T390.26,54.86q-12.88-8.7-12.88-20.57,0-10.37,11.54-20.24Q405.48,0,435.75,0,450,0,458.92,4.27t10.95,12.79a17.31,17.31,0,0,1,.34,3.35c0,4.34-2,8.25-6,11.7A31.77,31.77,0,0,1,453,37.47c-2,.55-3.13.33-3.35-.67-.22-1.45,1.17-2.35,4.18-2.68,5.36-.67,8.64-3.35,9.87-8A13,13,0,0,0,464.18,22.58Z"/><path class="cls-4" d="M497.46,128.62q0,4.68,3.35,4.68,7.86,0,22.25-29.43c.77-1.56,1.47-2.18,2.09-1.84a1.5,1.5,0,0,1,.92,1.33c0,.56-.65,2.15-1.93,4.77s-2.56,5.13-3.84,7.53-3.16,5.55-5.61,9.45q-7.7,11.7-16.39,11.7a10.54,10.54,0,0,1-9-4.68,10.32,10.32,0,0,1-1.51-5.94,31.37,31.37,0,0,1,1.68-9.11q1.67-5.35,9.2-17.4a10.19,10.19,0,0,0,1.84-4.76c0-1.17-1-1.76-2.85-1.76s-5.52,2.51-10.87,7.53q-12,11-23.42,33.11c-.78,1.68-2.84,2.51-6.18,2.51-3,.23-4.91.56-5.69,1q31.77-66.07,46-92.16a35.61,35.61,0,0,1,5.61-8.2,8,8,0,0,1,5.77-2.34,29.15,29.15,0,0,1,3.51.42,15.77,15.77,0,0,0,4,.25q-5,5.19-18,28.69t-24.83,47.75a122.19,122.19,0,0,1,14.13-15.39A84.17,84.17,0,0,1,503,85.89Q512,81,516.2,81a4.78,4.78,0,0,1,1.84.34Q497.46,117.41,497.46,128.62Z"/><path class="cls-4" d="M547.64,77.61q12.21,0,12.21,15.38a36.36,36.36,0,0,1-3.68,15.06,59.52,59.52,0,0,1-14,19.73Q544.3,132,550,132q4.51,0,8.53-4.51a45.79,45.79,0,0,0,7.19-9.12q2.17-3.93,3.18-5.77t2.59-5.27c1.06-2.28,1.7-3.68,1.93-4.18a1.18,1.18,0,0,1,1.17-.75c1.11-.11,1.67.28,1.67,1.17a2.68,2.68,0,0,1-.33,1.17l-1,2.34c-.67,1.57-1.17,2.68-1.5,3.35s-.92,1.87-1.76,3.59-1.56,3.1-2.17,4.1-1.45,2.34-2.51,4a38.27,38.27,0,0,1-2.85,4q-1.25,1.5-3.09,3.35a19.26,19.26,0,0,1-3.51,2.84,15.45,15.45,0,0,1-7.86,2.51c-4.58,0-8.14-1.45-10.71-4.35q-7.7,5.68-14.21,5.69-12.22,0-12.21-15.39a36.17,36.17,0,0,1,3.68-15.05A56,56,0,0,1,530.33,85.8Q539.43,77.61,547.64,77.61Zm1.84,5.18q-4.51,0-10.71,6t-11,16.39q-5.87,12-5.86,19.74t5.86,7.69q4.17,0,9.36-4.51a14.14,14.14,0,0,1-2.67-8.2q.33-7.19,5.85-7.19a4.73,4.73,0,0,1,3.6,1.51A4.28,4.28,0,0,1,545.3,117a10.36,10.36,0,0,1-.34,2.59,94.79,94.79,0,0,0,6.53-11.88A37.89,37.89,0,0,0,555.67,91Q555.67,82.79,549.48,82.79Z"/><path class="cls-4" d="M617.38,90.65a41.23,41.23,0,0,1-3.84,16.23,71.93,71.93,0,0,1-10.62,17.06,34.18,34.18,0,0,1-16.48,11.2,32.14,32.14,0,0,1-8.45,1,22.71,22.71,0,0,1-10.45-3l-15.89,39.63q-2.5,5.35-4.68,7a7,7,0,0,1-4.18,1.67h-2.43a27.93,27.93,0,0,1-3-.5,13.41,13.41,0,0,0-3.93-.33q3.69-3.52,18.65-33.37t17-40.23q-1.84,2.68-3.52,2.85c-.66,0-.66-.64,0-1.93s1.79-3.76,3.35-7.44a34.57,34.57,0,0,0,3-13.3q0-6.1-2.34-7.1,10-1.68,11.71-1.59A2,2,0,0,1,583.35,80a10.38,10.38,0,0,1,.41,3q0,10.2-4.68,22.75l3.35-5.36q6-9.69,8.78-12.54T597.15,82q4.85-4.69,9.36-4.69a8.85,8.85,0,0,1,2.51.34Q617.38,79.79,617.38,90.65Zm-8-1.67a11.26,11.26,0,0,0-1.08-4.93,3.59,3.59,0,0,0-3.43-2.26q-5.87,0-13.63,10.87t-22.33,38a8.12,8.12,0,0,0,6,2.17q3.84,0,10.87-5.85A78.92,78.92,0,0,0,604.5,103.7Q609.36,94.67,609.35,89Z"/><path class="cls-4" d="M667.56,90.65a41.09,41.09,0,0,1-3.85,16.23,71.29,71.29,0,0,1-10.62,17.06,34.15,34.15,0,0,1-16.47,11.2,32.2,32.2,0,0,1-8.45,1,22.68,22.68,0,0,1-10.45-3l-15.89,39.63q-2.51,5.35-4.68,7a7,7,0,0,1-4.19,1.67h-2.42a27.52,27.52,0,0,1-3-.5,13.41,13.41,0,0,0-3.93-.33q3.67-3.52,18.65-33.37t17-40.23c-1.22,1.79-2.4,2.74-3.51,2.85-.67,0-.67-.64,0-1.93s1.78-3.76,3.35-7.44a34.76,34.76,0,0,0,3-13.3q0-6.1-2.35-7.1,10-1.68,11.71-1.59A2,2,0,0,1,633.52,80a10,10,0,0,1,.42,3q0,10.2-4.68,22.75l3.34-5.36q6-9.69,8.78-12.54T647.32,82q4.84-4.69,9.37-4.69a8.85,8.85,0,0,1,2.51.34Q667.56,79.79,667.56,90.65Zm-8-1.67a11.13,11.13,0,0,0-1.09-4.93A3.57,3.57,0,0,0,655,81.79q-5.87,0-13.64,10.87t-22.32,38a8.11,8.11,0,0,0,6,2.17q3.84,0,10.87-5.85a79.08,79.08,0,0,0,18.73-23.25Q659.53,94.67,659.53,89Z"/><path class="cls-4" d="M674.08,132.47q3.18,0,6.69-3.18Q687,123.1,696.5,104c.77-1.67,1.56-2.17,2.34-1.5a1.48,1.48,0,0,1,.33,1.08,13.35,13.35,0,0,1-1.34,3.68c-.89,2-1.7,3.71-2.42,5.27s-2.12,4.1-4.18,7.61a52.8,52.8,0,0,1-5.61,8.11q-6.86,7.88-13,7.87t-8.78-3.68a13.65,13.65,0,0,1-2.68-8.2,26.43,26.43,0,0,1,2.18-9.87l10.7-27.26a8.78,8.78,0,0,0,.34-2.68q0-1.67-2-4.34l9.2-.17c2.56,0,4.07.47,4.52,1.42s.11,2.42-1,4.43l-13.38,31.28q-2.85,6.19-2.84,10.54Q668.9,132.46,674.08,132.47Zm16.39-61.39a7.77,7.77,0,0,1-5.18,2,5.58,5.58,0,0,1-4.52-2,6.11,6.11,0,0,1-1.33-4.85,8.11,8.11,0,0,1,2.84-4.85,7.76,7.76,0,0,1,5.18-2,5.8,5.8,0,0,1,4.6,2,5.56,5.56,0,0,1,1.26,4.85A8.12,8.12,0,0,1,690.47,71.08Z"/><path class="cls-4" d="M741.15,81.29q-20.56,36.12-20.57,47.16,0,4.35,3.18,4.35,8.52,0,22.91-28.93c.67-1.56,1.34-2.18,2-1.84a1.5,1.5,0,0,1,1,1.33,4.19,4.19,0,0,1-.67,2q-8.87,17.89-15,24.67t-12.21,6.77a10.51,10.51,0,0,1-9.28-4.68,9.49,9.49,0,0,1-1.67-5.94,31.32,31.32,0,0,1,1.67-9.11q1.66-5.35,9.2-17.4a10.08,10.08,0,0,0,1.84-4.76c0-1.17-1-1.76-2.84-1.76s-5.52,2.51-10.88,7.53q-12,11-23.24,33.11a4.47,4.47,0,0,1-2.26,2.1,22.51,22.51,0,0,1-4.94.58,12.44,12.44,0,0,0-4.85.84q2.68-5.35,10.54-21.91Q699.18,86.15,703.52,82A7.46,7.46,0,0,1,709,80a29.08,29.08,0,0,1,3.43.5,10.71,10.71,0,0,0,4.09.17q-6.18,3.34-20.23,31.44a135.88,135.88,0,0,1,14.3-15.47,81.75,81.75,0,0,1,15.47-10.7q9-4.94,13.21-4.94A4.78,4.78,0,0,1,741.15,81.29Z"/><path class="cls-4" d="M729.11,189q-15.72,0-15.73-12.88,0-10.71,14.56-19.23,12.38-7.2,31.61-13.55,8.87-2.85,12.88-4.52a85.5,85.5,0,0,0,4.35-27.76,22.71,22.71,0,0,0-.34-4.52,103.26,103.26,0,0,1-12.88,19.57q-9.7,12-19.23,9.37-8.7-3.67-8.7-14.39,0-14.39,14.38-31.61,7.86-9.36,18.4-11.87a20,20,0,0,1,5.69-.84,25.44,25.44,0,0,1,14.72,5c1.78,1.45,2.67,2.67,2.67,3.68a5,5,0,0,1-1,2.92c-.67,1-1.37,1.07-2.09.34A5.43,5.43,0,0,1,787,86.64q-2.18-6.19-7-6.19-8.87,0-19.9,12.38a88.21,88.21,0,0,0-10.71,15q-5.51,10-5.51,15.47c0,3.63,1.11,6.05,3.34,7.28a6,6,0,0,0,2.34.5q3.86,0,9.62-5.27a60.4,60.4,0,0,0,10.7-13.38q4.93-8.12,6.28-12.63c.89-3,2-4.9,3.26-5.68a9.33,9.33,0,0,1,4.26-1.34,6,6,0,0,0,3.18-.84,102.24,102.24,0,0,1,1.34,17.65,88.52,88.52,0,0,1-3.51,23q7.68-5.52,11-9.86a67,67,0,0,0,5.19-7.87q1.92-3.51,3.43-6.94t2-4.43a2.28,2.28,0,0,1,1.67-1.25c.78-.17,1.18.19,1.18,1.08a5.2,5.2,0,0,1-.51,2q-7.35,15.22-12.29,22a34.28,34.28,0,0,1-13.46,10.79,99.19,99.19,0,0,1-11.63,22.58A81.38,81.38,0,0,1,752,180.47Q740.49,189,729.11,189Zm-12.21-9.7q0,6.34,8.19,6.35a26.47,26.47,0,0,0,11-2.84A58.06,58.06,0,0,0,746.17,177q6.86-5.52,15.05-16.4a84.58,84.58,0,0,0,9.53-16.89l-5.85,2q-26.1,9-36.8,16.06A24.38,24.38,0,0,0,717.73,175,14.25,14.25,0,0,0,716.9,179.3Z"/></g></g></svg>