<svg width="18" height="30" viewBox="0 0 18 30" fill="none" xmlns="http://www.w3.org/2000/svg">
<g clip-path="url(#clip0_202_400)">
<path d="M15.1238 0.61672H3.1907C1.61484 0.61672 0.333252 1.89831 0.333252 3.47416V27.0945C0.333252 28.6704 1.61484 29.952 3.1907 29.952H15.1258C16.7016 29.952 17.9832 28.6704 17.9832 27.0945V3.47416C17.9832 1.89831 16.7016 0.618656 15.1258 0.61672H15.1238ZM16.2757 27.0926C16.2757 27.7276 15.7588 28.2445 15.1238 28.2445H3.1907C2.55571 28.2445 2.03881 27.7276 2.03881 27.0926V3.47223C2.03881 2.83724 2.55571 2.32035 3.1907 2.32035H3.98637L4.66975 4.42084C4.78397 4.77318 5.10921 5.00936 5.48091 5.00936H12.8394C13.2092 5.00936 13.5344 4.77318 13.6506 4.42084L14.334 2.32035H15.1296C15.7646 2.32035 16.2815 2.83724 16.2815 3.47223V27.0907L16.2757 27.0926ZM12.218 3.30574H6.09654L5.77517 2.32035H12.5374L12.216 3.30574H12.218Z" fill="#010101"/>
<path fill-rule="evenodd" clip-rule="evenodd" d="M15.1262 0.283386C16.8855 0.285548 18.3166 1.71384 18.3166 3.47416V27.0945C18.3166 28.8545 16.8858 30.2853 15.1258 30.2853H3.19078C1.43083 30.2853 0 28.8545 0 27.0945V3.47416C0 1.71422 1.43083 0.283386 3.19078 0.283386H15.1262ZM16.2816 27.0907V3.47223C16.2816 2.83724 15.7647 2.32035 15.1297 2.32035H14.334L13.6507 4.42084C13.5345 4.77318 13.2093 5.00936 12.8395 5.00936H5.48099C5.10929 5.00936 4.78406 4.77318 4.66984 4.42084L3.98645 2.32035H3.19078C2.55579 2.32035 2.0389 2.83724 2.0389 3.47223V27.0926C2.0389 27.7276 2.55579 28.2445 3.19078 28.2445H15.1239C15.7589 28.2445 16.2758 27.7276 16.2758 27.0926L16.2816 27.0907ZM15.9483 26.8504V3.47223C15.9483 3.02134 15.5806 2.65368 15.1297 2.65368H14.5761L13.9672 4.5252C13.8063 5.01335 13.354 5.3427 12.8395 5.3427H5.48099C4.96534 5.3427 4.51177 5.01395 4.3528 4.52379C4.35278 4.52374 4.35282 4.52385 4.3528 4.52379L3.74437 2.65368H3.19078C2.73989 2.65368 2.37223 3.02134 2.37223 3.47223V27.0926C2.37223 27.5435 2.73989 27.9112 3.19078 27.9112H15.1239C15.5748 27.9112 15.9425 27.5435 15.9425 27.0926V26.8523L15.9483 26.8504ZM12.5375 2.32035H5.77526L6.09662 3.30574H12.2161L12.5375 2.32035ZM11.9742 2.9724L12.0782 2.65368H6.23458L6.33852 2.9724H11.9742ZM15.1258 0.61672C16.7017 0.618656 17.9833 1.89831 17.9833 3.47416V27.0945C17.9833 28.6704 16.7017 29.952 15.1258 29.952H3.19078C1.61492 29.952 0.333333 28.6704 0.333333 27.0945V3.47416C0.333333 1.89831 1.61492 0.61672 3.19078 0.61672H15.1258Z" fill="black"/>
<path d="M9.15716 22.8568C7.89299 22.8568 6.86694 23.8848 6.86694 25.147C6.86694 26.4092 7.89493 27.4372 9.15716 27.4372C10.4194 27.4372 11.4474 26.4092 11.4474 25.147C11.4474 23.8848 10.4194 22.8568 9.15716 22.8568ZM9.74375 25.147C9.74375 25.4703 9.48046 25.7336 9.15716 25.7336C8.83386 25.7336 8.57057 25.4703 8.57057 25.147C8.57057 24.8237 8.83386 24.5604 9.15716 24.5604C9.48046 24.5604 9.74375 24.8237 9.74375 25.147Z" fill="#010101"/>
</g>
<defs>
<clipPath id="clip0_202_400">
<rect width="17.648" height="29.3333" fill="white" transform="translate(0.333252 0.61672)"/>
</clipPath>
</defs>
</svg>
