<?xml version="1.0" encoding="UTF-8"?>
<svg id="Layer_1" data-name="Layer 1" xmlns="http://www.w3.org/2000/svg" viewBox="0 0 501.33 51.45">
  <defs>
    <style>
      .cls-1 {
        fill: #231f20;
      }
    </style>
  </defs>
  <path class="cls-1" d="M13.79,21.48H4.73v14.37H13.79c5.57,0,7.71-3.33,7.71-7.21s-2.53-7.16-7.71-7.16h0Zm-1.01-16.43H4.73v12.87H12.78c4.9,0,7.6-2.5,7.6-6.38s-2.25-6.49-7.6-6.49h0ZM0,1.44H13.85c7.54,0,11.31,4.05,11.31,9.71,0,3.11-1.29,6.38-5.29,8.38,5.07,1.55,6.36,6.55,6.36,9.54,0,6.27-5.07,10.38-10.86,10.38H0V1.44"/>
  <path class="cls-1" d="M35.84,23.92h14.02c0-5.22-1.58-8.82-6.64-8.82s-7.04,4.22-7.37,8.82h0Zm18.35,.78v2.16h-18.41c-.06,5.05,1.69,9.6,7.82,9.6,3.21,0,5.69-.67,8.78-1.94l1.12,2.89c-3.26,1.72-6.59,2.5-10.24,2.5-9.79,0-12.22-6.38-12.22-13.93,0-4.83,1.69-14.21,12.05-14.21,10.98,0,11.09,9.6,11.09,12.93"/>
  <path class="cls-1" d="M66.47,5.49v6.88h8.28v3.27h-8.33V31.85c0,2.61,.73,4.44,3.83,4.44,1.3,0,3.04-.33,5.18-.94l.73,3.05c-2.03,.94-4.62,1.5-6.87,1.5-4.9,0-7.38-2.22-7.38-6.66V15.65h-3.99v-2.39l4.22-1.28,1.41-5.99,2.93-.5"/>
  <path class="cls-1" d="M86.36,5.49v6.88h8.27v3.27h-8.33V31.85c0,2.61,.73,4.44,3.83,4.44,1.3,0,3.04-.33,5.18-.94l.73,3.05c-2.03,.94-4.62,1.5-6.87,1.5-4.9,0-7.37-2.22-7.37-6.66V15.65h-4v-2.39l4.22-1.28,1.41-5.99,2.93-.5"/>
  <path class="cls-1" d="M104.35,23.92h14.02c0-5.22-1.58-8.82-6.64-8.82s-7.04,4.22-7.37,8.82h0Zm18.35,.78v2.16h-18.41c-.06,5.05,1.69,9.6,7.82,9.6,3.21,0,5.69-.67,8.78-1.94l1.12,2.89c-3.26,1.72-6.58,2.5-10.24,2.5-9.8,0-12.22-6.38-12.22-13.93,0-4.83,1.69-14.21,12.05-14.21,10.98,0,11.09,9.6,11.09,12.93"/>
  <path class="cls-1" d="M134.47,17.26q.06,0,.11,.05c2.48-3.88,6.75-5.55,10.36-5.55v4.38c-2.87,.06-7.04,.83-10.3,4.83v18.48h-4.67V12.38h4.33l.17,4.88"/>
  <path class="cls-1" d="M183.06,33.57h.34c4.45-10.71,8.95-21.48,13.34-32.13h5.29V39.46h-4.67V11.04h-.17c-3.94,9.49-7.88,18.98-11.88,28.42h-4.28c-3.94-9.21-7.82-18.54-11.71-27.8h-.17c0,9.27-.06,18.59-.06,27.8h-4.62V1.44h5.29c4.45,10.65,8.9,21.42,13.28,32.13"/>
  <path class="cls-1" d="M220.67,15.26c-6.08,0-7.6,5.66-7.6,10.77,0,5.38,1.13,10.38,7.6,10.38,5.97,0,7.15-5.49,7.15-10.38s-1.07-10.77-7.15-10.77h0Zm-.57,24.64c-9.01,0-11.82-6.55-11.82-13.87s3.38-14.26,12.38-14.26,11.93,7.05,11.93,14.15-2.87,13.99-12.5,13.99"/>
  <path class="cls-1" d="M256.36,39.46V21.59c0-3.77-.45-6.11-4.78-6.11-2.59,0-6.02,1.33-8.39,2.66v21.31h-4.61V12.38h4.5l.06,2.33,.17,.11c3.1-1.94,6.93-3.05,9.57-3.05,7.49,0,8.05,4.66,8.05,8.71v18.98h-4.56"/>
  <path class="cls-1" d="M271.96,23.92h14.02c0-5.22-1.58-8.82-6.64-8.82s-7.04,4.22-7.38,8.82h0Zm18.35,.78v2.16h-18.4c-.06,5.05,1.69,9.6,7.82,9.6,3.21,0,5.69-.67,8.78-1.94l1.12,2.89c-3.26,1.72-6.59,2.5-10.24,2.5-9.8,0-12.22-6.38-12.22-13.93,0-4.83,1.69-14.21,12.05-14.21,10.98,0,11.09,9.6,11.09,12.93"/>
  <path class="cls-1" d="M313.9,12.38h4.56c-3.6,10.76-7.21,21.53-10.86,32.24-1.69,4.99-4.11,6.83-8.16,6.83-1.13,0-3.04-.11-5.97-.94,.17-1.11,.45-2.22,.68-3.38,2.02,.39,3.26,.61,4.56,.61,2.09,0,3.55-.55,4.67-3.94l1.13-3.33c-3.38-9.32-6.7-18.7-10.08-28.08h4.73c2.48,7.55,4.95,15.04,7.37,22.59h.28l7.09-22.59"/>
  <path class="cls-1" d="M361.11,39.46V21.09h-18.12c0,4.05,.05,14.32,.05,18.37h-4.9V1.44h4.9c0,3.61-.05,12.54-.05,16.15h18.12V1.44h4.9V39.46h-4.9"/>
  <path class="cls-1" d="M382.54,26.97c-3.71,.22-5.57,2-5.57,4.88,0,3.22,1.57,4.83,5.12,4.83,2.37,0,5.01-1.22,7.6-3.44v-6.71l-7.15,.44h0Zm11.6-6.16v18.65h-4.05l-.28-2.94s-.06-.06-.11-.06c-4.22,3.33-7.77,3.39-9.51,3.39-6.36,0-8.11-4.33-8.11-7.55,0-5.1,3.94-7.93,9.35-8.21l8.27-.44v-1.94c0-4.44-1.18-6.38-5.91-6.38-2.76,0-5.91,.67-8.67,1.55-.28-1-.56-2-.9-3,3.15-1.33,7.21-2.11,10.58-2.11,5.91,0,9.35,2.39,9.35,9.05"/>
  <path class="cls-1" d="M406.25,17.81v17.26c2.31,1,4.67,1.28,6.59,1.28,4.61,0,7.43-2.55,7.43-10.21,0-8.6-2.7-10.6-6.53-10.6-2.65,0-5.46,1.11-7.49,2.27h0Zm.11-3.66c3.21-1.78,5.96-2.39,8.27-2.39,7.99,0,10.36,6.05,10.36,14.26,0,7.55-2.82,13.87-11.88,13.87-3.72,0-7.94-.83-11.49-2.44V0h4.62V7.99l-.17,5.94,.28,.22"/>
  <path class="cls-1" d="M436.44,39.46h-4.56V12.38h4.56v27.08Zm-4.56,0,2.31-31.25c-1.58,0-2.98-1.39-2.98-2.94,0-1.67,1.4-3,2.98-3,1.69,0,3.09,1.33,3.09,3,0,1.55-1.41,2.94-3.09,2.94"/>
  <path class="cls-1" d="M450.98,5.49v6.88h8.27v3.27h-8.33V31.85c0,2.61,.73,4.44,3.83,4.44,1.3,0,3.04-.33,5.18-.94l.73,3.05c-2.03,.94-4.61,1.5-6.87,1.5-4.9,0-7.37-2.22-7.37-6.66V15.65h-4v-2.39l4.22-1.28,1.41-5.99,2.93-.5"/>
  <path class="cls-1" d="M465.25,34.68c3.49,1.55,6.53,1.83,8.5,1.83,3.49,0,6.25-1.06,6.25-4.33,0-2.89-2.81-3.89-5.91-4.94-4.78-1.66-9.29-2.89-9.29-7.88s4.45-7.6,9.96-7.6c2.31,0,5.8,.5,8.22,1.94l-1.41,3.16c-2.81-1.11-4.95-1.44-6.87-1.44-2.87,0-5.57,1-5.57,4,0,2.33,3.6,3.39,5.85,4.11,4.62,1.44,9.46,2.89,9.46,8.6s-4.56,7.77-10.87,7.77c-3.26,0-7.32-.72-9.8-2.11l1.47-3.11"/>
  <path class="cls-1" d="M495.07,3.29h-1.44v2.72h1.41c.73,0,1.41-.27,1.41-1.36,0-.99-.65-1.36-1.38-1.36h0Zm1.46,6.94l-1.52-3.36h-1.38v3.36h-1.19V2.43h2.71c1.51,0,2.49,.72,2.49,2.19,0,.67-.43,1.66-1.46,2.08l1.65,3.52h-1.3Zm-1.76-9.32c-3.11,0-5.61,2.48-5.61,5.5s2.46,5.48,5.61,5.48,5.58-2.48,5.58-5.48-2.44-5.5-5.58-5.5h0Zm0,11.88c-3.66,0-6.58-2.86-6.58-6.38s2.9-6.41,6.58-6.41,6.55,2.86,6.55,6.41-2.92,6.38-6.55,6.38"/>
</svg>