<?xml version="1.0" encoding="utf-8"?>
<!-- Generator: Adobe Illustrator 24.0.3, SVG Export Plug-In . SVG Version: 6.00 Build 0)  -->
<svg version="1.1" id="Layer_1" xmlns="http://www.w3.org/2000/svg" xmlns:xlink="http://www.w3.org/1999/xlink" x="0px" y="0px"
	 width="1002.65448px" height="169.9067383px" viewBox="0 0 1002.65448 169.9067383"
	 style="enable-background:new 0 0 1002.65448 169.9067383;" xml:space="preserve">
<metadata><?xpacket begin="﻿" id="W5M0MpCehiHzreSzNTczkc9d"?>
<x:xmpmeta xmlns:x="adobe:ns:meta/" x:xmptk="Adobe XMP Core 5.6-c145 79.162955, 2018/05/10-01:07:16        ">
   <rdf:RDF xmlns:rdf="http://www.w3.org/1999/02/22-rdf-syntax-ns#">
      <rdf:Description rdf:about=""
            xmlns:dc="http://purl.org/dc/elements/1.1/"
            xmlns:xmp="http://ns.adobe.com/xap/1.0/"
            xmlns:xmpMM="http://ns.adobe.com/xap/1.0/mm/"
            xmlns:stEvt="http://ns.adobe.com/xap/1.0/sType/ResourceEvent#"
            xmlns:lr="http://ns.adobe.com/lightroom/1.0/">
         <dc:subject>
            <rdf:Bag>
               <rdf:li>Better Money Habits</rdf:li>
               <rdf:li>Signifier</rdf:li>
               <rdf:li>text treatment</rdf:li>
               <rdf:li>type treatment</rdf:li>
               <rdf:li>color</rdf:li>
               <rdf:li>bank of america</rdf:li>
            </rdf:Bag>
         </dc:subject>
         <xmp:MetadataDate>2020-04-21T13:27:23-04:00</xmp:MetadataDate>
         <xmpMM:InstanceID>xmp.iid:d6f822fb-fc0f-47ce-9cd9-4de7a16d774e</xmpMM:InstanceID>
         <xmpMM:DocumentID>xmp.did:8bf913a2-ab4f-4124-979c-93b2683afa72</xmpMM:DocumentID>
         <xmpMM:OriginalDocumentID>xmp.did:8bf913a2-ab4f-4124-979c-93b2683afa72</xmpMM:OriginalDocumentID>
         <xmpMM:History>
            <rdf:Seq>
               <rdf:li>
                  <rdf:Description>
                     <stEvt:action>saved</stEvt:action>
                     <stEvt:instanceID>xmp.iid:8bf913a2-ab4f-4124-979c-93b2683afa72</stEvt:instanceID>
                     <stEvt:when>2020-04-17T13:32:26-04:00</stEvt:when>
                     <stEvt:softwareAgent>Adobe Bridge CC 2018 (Macintosh)</stEvt:softwareAgent>
                     <stEvt:changed>/metadata</stEvt:changed>
                  </rdf:Description>
               </rdf:li>
               <rdf:li>
                  <rdf:Description>
                     <stEvt:action>saved</stEvt:action>
                     <stEvt:instanceID>xmp.iid:d6f822fb-fc0f-47ce-9cd9-4de7a16d774e</stEvt:instanceID>
                     <stEvt:when>2020-04-21T13:27:23-04:00</stEvt:when>
                     <stEvt:softwareAgent>Adobe Bridge CC 2018 (Macintosh)</stEvt:softwareAgent>
                     <stEvt:changed>/metadata</stEvt:changed>
                  </rdf:Description>
               </rdf:li>
            </rdf:Seq>
         </xmpMM:History>
         <lr:hierarchicalSubject>
            <rdf:Bag>
               <rdf:li>Other Keywords|color</rdf:li>
               <rdf:li>Other Keywords|bank of america</rdf:li>
            </rdf:Bag>
         </lr:hierarchicalSubject>
      </rdf:Description>
   </rdf:RDF>
</x:xmpmeta>
                                                                                                    
                                                                                                    
                                                                                                    
                                                                                                    
                                                                                                    
                                                                                                    
                                                                                                    
                                                                                                    
                                                                                                    
                                                                                                    
                                                                                                    
                                                  
<?xpacket end="w"?></metadata>
<style type="text/css">
	.st0{fill:#E31837;}
</style>
<g>
	<g>
		<g>
			<g>
				<path class="st0" d="M0,69.9009552h27.6966171c15.0807762,0,22.6245461,8.1024475,22.6245461,19.424881
					c0,6.2131119-2.5868225,12.7614365-10.5775337,16.7601776c10.1305962,3.104866,12.7174225,13.0966415,12.7174225,19.0896683
					c0,12.5413589-10.1306,20.7555313-21.7239017,20.7555313H0V69.9009552z M25.5567322,77.1162949H9.4601898v25.749733h16.0965424
					c9.7920074,0,15.1958961-4.994194,15.1958961-12.7648239C40.7526283,82.5540466,36.2493858,77.1162949,25.5567322,77.1162949z
					 M27.5814972,109.969635H9.4601898v28.7462463h18.1213074c11.1463661,0,15.426136-6.6600647,15.426136-14.4272995
					C43.0076332,116.7414246,37.9423332,109.969635,27.5814972,109.969635z"/>
				<path class="st0" d="M108.3926849,116.4062195v4.3305588H71.5812454
					c-0.1151199,10.1001205,3.372345,19.2014084,15.6428299,19.2014084c6.4196548,0,11.3766022-1.3340454,17.5660172-3.8870087
					l2.2482376,5.7729492c-6.5280075,3.4400635-13.1711273,4.9942017-20.4846649,4.9942017
					c-19.5907822,0-24.4326134-12.7648315-24.4326134-27.8591461c0-9.6565704,3.3791237-28.4144287,24.0940285-28.4144287
					C108.16922,90.544754,108.3926849,109.7461624,108.3926849,116.4062195z M71.6895905,114.8520966h28.0352097
					c0-10.4319458-3.1556549-17.6472855-13.2862549-17.6472855
					C75.8542404,97.2048111,72.3667679,105.6390762,71.6895905,114.8520966z"/>
				<path class="st0" d="M132.9336548,78.0034027V91.767067h16.5502472v6.548317h-16.6585999v32.40979
					c0,5.2176514,1.4627075,8.8778076,7.6521149,8.8778076c2.5935974,0,6.0810699-0.6636353,10.3608398-1.8859406
					l1.4627075,6.1047668c-4.04953,1.8859406-9.22995,2.996521-13.7331848,2.996521
					c-9.7987823,0-14.7489548-4.4389191-14.7489548-13.3201141V98.3153839h-7.990715V93.541275l8.4376526-2.5529633
					l2.8170624-11.9860687L132.9336548,78.0034027z"/>
				<path class="st0" d="M172.7226868,78.0034027V91.767067h16.5434723v6.548317h-16.6585999v32.40979
					c0,5.2176514,1.4627075,8.8778076,7.6521301,8.8778076c2.5935822,0,6.0810547-0.6636353,10.3608246-1.8859406
					l1.4627075,6.1047668c-4.0562897,1.8859406-9.22995,2.996521-13.7331848,2.996521
					c-9.7987823,0-14.7489624-4.4389191-14.7489624-13.3201141V98.3153839h-7.9974823V93.541275l8.4444275-2.5529633
					l2.8170624-11.9860687L172.7226868,78.0034027z"/>
				<path class="st0" d="M245.4130249,116.4062195v4.3305588h-36.8114471
					c-0.1151123,10.1001205,3.3723602,19.2014084,15.6428375,19.2014084c6.4196625,0,11.3766022-1.3340454,17.5660248-3.8870087
					l2.24823,5.7729492c-6.5279999,3.4400635-13.1711273,4.9942017-20.4846649,4.9942017
					c-19.5907745,0-24.4326172-12.7648315-24.4326172-27.8591461c0-9.6565704,3.3791351-28.4144287,24.0940247-28.4144287
					C245.1895599,90.544754,245.4130249,109.7461624,245.4130249,116.4062195z M208.7099304,114.8520966h28.035202
					c0-10.4319458-3.1556396-17.6472855-13.2862396-17.6472855
					C212.874588,97.2048111,209.3871155,105.6390762,208.7099304,114.8520966z"/>
				<path class="st0" d="M268.9434509,101.5353699c0.1151428,0,0.1151428,0,0.2234802,0.1083527
					c4.9569397-7.7672424,13.5097351-11.0989685,20.7149048-11.0989685v8.7694702
					c-5.7424622,0.1117325-14.0717773,1.6658554-20.5997925,9.6565704v36.9604187h-9.3450623V91.767067h8.6679077
					L268.9434509,101.5353699z"/>
			</g>
			<g>
				<path class="st0" d="M366.1142273,134.1652374h0.6771851c8.8981323-21.422554,17.9046021-42.9534607,26.6808472-64.2642822
					h10.5842896v76.0302582h-9.3450623V89.1023636h-0.3385925c-7.8755798,18.9813232-15.7579346,37.9592667-23.7554321,56.8288498
					h-8.5527649c-7.8823547-18.426033-15.6495972-37.0721512-23.4168396-55.6065369h-0.3385925
					c0,18.5343857-0.1151428,37.1805038-0.1151428,55.6065369h-9.22995V69.9009552h10.5843201
					C348.4398499,91.2117767,357.3379822,112.7426834,366.1142273,134.1652374z"/>
				<path class="st0" d="M440.2058411,146.8183289c-18.01297,0-23.6403198-13.0966492-23.6403198-27.7474136
					c0-14.4306793,6.7582397-28.5261612,24.7712097-28.5261612c18.3447571,0,23.8637695,14.0954819,23.8637695,28.3026962
					C465.2005005,132.7228394,459.4580383,146.8183289,440.2058411,146.8183289z M441.336731,97.5366287
					c-12.1621399,0-15.2026672,11.3224335-15.2026672,21.5342865c0,10.7671432,2.2550049,20.7555313,15.2026672,20.7555313
					c11.9318848,0,14.2952271-10.9872284,14.2952271-20.7555313
					C455.631958,109.4143448,453.4920959,97.5366287,441.336731,97.5366287z"/>
				<path class="st0" d="M512.7181396,145.9312134v-35.7414932c0-7.5471649-0.9006348-12.2095413-9.5685425-12.2095413
					c-5.1803894,0-12.0469971,2.6647034-16.7804871,5.3293991v42.6216354h-9.22995V91.767067h9.0065002l0.1151123,4.6623764
					l0.3385925,0.2200775c6.1894226-3.8836212,13.8482971-6.1047668,19.1370544-6.1047668
					c14.9724426,0,16.0965881,9.3247528,16.0965881,17.4272003v37.959259H512.7181396z"/>
				<path class="st0" d="M580.6182861,116.4062195v4.3305588h-36.8114014
					c-0.1151733,10.1001205,3.3723145,19.2014084,15.6428223,19.2014084c6.4196167,0,11.3765869-1.3340454,17.565979-3.8870087
					l2.248291,5.7729492c-6.5280151,3.4400635-13.1711426,4.9942017-20.4846802,4.9942017
					c-19.5908203,0-24.4326172-12.7648315-24.4326172-27.8591461c0-9.6565704,3.3790894-28.4144287,24.0939941-28.4144287
					C580.3948364,90.544754,580.6182861,109.7461624,580.6182861,116.4062195z M543.9152222,114.8520966h28.0352173
					c0-10.4319458-3.1557007-17.6472855-13.2862549-17.6472855
					C548.079834,97.2048111,544.5924072,105.6390762,543.9152222,114.8520966z"/>
				<path class="st0" d="M627.8031616,91.767067h9.1216431c-7.2052002,21.530899-14.4104004,43.0651932-21.7307129,64.4877396
					c-3.3790894,9.9883881-8.2141724,13.6519318-16.3200073,13.6519318c-2.2550049,0-6.0810547-0.223465-11.9386597-1.889328
					c0.338623-2.2177582,0.9006348-4.4389038,1.3543701-6.7684021c4.0495605,0.7753754,6.5280151,1.2189178,9.1148071,1.2189178
					c4.1714478,0,7.0968628-1.1071777,9.3450928-7.8789673l2.2550049-6.6600647
					c-6.7582397-18.6461182-13.4013672-37.4039764-20.152832-56.1618271h9.4602051
					c4.9501343,15.0943146,9.9003296,30.0768967,14.7421875,45.1745987h0.5620117L627.8031616,91.767067z"/>
			</g>
			<g>
				<path class="st0" d="M722.2108154,145.9312134v-36.7403336h-36.2493896c0,8.1024399,0.1083374,28.6379013,0.1083374,36.7403336
					h-9.7919922V69.9009552h9.7919922c0,7.2153397-0.1083374,25.0827103-0.1083374,32.2980499h36.2493896V69.9009552h9.7919922
					v76.0302582H722.2108154z"/>
				<path class="st0" d="M788.2823486,108.6389771v37.2922363h-8.105835l-0.5620728-5.8812866
					c0,0-0.1151123-0.1117401-0.2234497-0.1117401c-8.444458,6.6600494-15.5412598,6.7684021-19.0287476,6.7684021
					c-12.7241821,0-16.2116699-8.6543427-16.2116699-15.0943146c0-10.2118607,7.8823853-15.8696899,18.6901855-16.4249802
					l16.5502319-0.8904877v-3.8836212c0-8.8778152-2.3633423-12.7648239-11.8235474-12.7648239
					c-5.5189819,0-11.8167725,1.3340454-17.3357544,3.1082535c-0.5620728-1.9976807-1.1241455-3.9953537-1.8013306-5.9930344
					c6.3045654-2.6646957,14.4104004-4.2188263,21.1618652-4.2188263
					C781.4157715,90.544754,788.2823486,95.3188705,788.2823486,108.6389771z M765.0889893,120.9568634
					c-7.4286499,0.4435501-11.1395874,3.9953537-11.1395874,9.7683105c0,6.4365845,3.1488647,9.6565704,10.2388916,9.6565704
					c4.7335205,0,10.0222778-2.4412384,15.2026978-6.8835297v-13.4284592L765.0889893,120.9568634z"/>
				<path class="st0" d="M812.7202148,95.3188705c6.4128418-3.5518036,11.9318848-4.7741165,16.5502319-4.7741165
					c15.9814453,0,20.7149048,12.0978012,20.7149048,28.5261612c0,15.0943222-5.6341553,27.7474136-23.7554321,27.7474136
					c-7.4354248,0-15.8730469-1.6624756-22.9699097-4.8824615v-74.919693h9.2366943v15.9814224l-0.338562,11.8777161
					L812.7202148,95.3188705z M812.4967041,102.6425552v34.5192032c4.6116333,1.9976654,9.3383179,2.5529633,13.1711426,2.5529633
					c9.2299805,0,14.8572998-5.1059265,14.8572998-20.4237213c0-17.2037277-5.4038696-21.1990814-13.0559692-21.1990814
					C822.173645,98.0919189,816.5462646,100.3130646,812.4967041,102.6425552z"/>
				<path class="st0" d="M868.3830566,83.4411469c-3.1556396,0-5.9659424-2.7730484-5.9659424-5.8812943
					c0-3.3317184,2.8103027-5.9930344,5.9659424-5.9930344c3.3723755,0,6.1894531,2.6613159,6.1894531,5.9930344
					C874.5725098,80.6680984,871.7554321,83.4411469,868.3830566,83.4411469z M863.7647095,145.9312134V91.767067h9.121582
					v50.3548508v3.8092957H863.7647095z"/>
				<path class="st0" d="M901.9607544,78.0034027V91.767067h16.5435181v6.548317h-16.6586304v32.40979
					c0,5.2176514,1.4627075,8.8778076,7.6521606,8.8778076c2.5935669,0,6.0810547-0.6636353,10.3608398-1.8859406
					l1.4627075,6.1047668c-4.0563354,1.8859406-9.2299805,2.996521-13.7332153,2.996521
					c-9.7987671,0-14.7489624-4.4389191-14.7489624-13.3201141V98.3153839h-7.9974976V93.541275l8.444458-2.5529633
					l2.8170776-11.9860687L901.9607544,78.0034027z"/>
				<path class="st0" d="M930.4959106,136.3863831c6.9749756,3.1082458,13.0560303,3.6635437,16.9971924,3.6635437
					c6.9817505,0,12.4939575-2.1094208,12.4939575-8.6577454c0-5.7729416-5.6273804-7.7706223-11.8167725-9.8800354
					c-9.5685425-3.328331-18.5750122-5.7695618-18.5750122-15.7613373c0-10.4319382,8.8913574-15.2060547,19.9226074-15.2060547
					c4.6183472,0,11.6000366,0.9988403,16.4351196,3.8870087l-2.8103027,6.324852
					c-5.6273193-2.2211456-9.9071045-2.8847809-13.7331543-2.8847809c-5.7424927,0-11.1463623,1.997673-11.1463623,7.9907074
					c0,4.6623764,7.2051392,6.7717896,11.708374,8.21418c9.2299805,2.8847809,18.9136353,5.7695694,18.9136353,17.2037354
					c0,10.8754883-9.121582,15.5378723-21.7306519,15.5378723c-6.5280151,0-14.6338501-1.4423981-19.5908203-4.2154388
					L930.4959106,136.3863831z"/>
			</g>
		</g>
		<path class="st0" d="M989.5465088,92.5995483c-7.3156738,0-13.1617432-5.7142029-13.1617432-12.7634277
			c0-7.1057434,5.7922363-12.8199463,13.1617432-12.8199463c7.2564697,0,13.1079712,5.7142029,13.1079712,12.8199463
			C1002.65448,86.8853455,996.8029785,92.5995483,989.5465088,92.5995483z M989.5465088,68.8329849
			c-6.2282715,0-11.2130737,4.9659424-11.2130737,11.0031357c0,5.9806671,4.9309692,10.9493103,11.2130737,10.9493103
			c6.3898315,0,11.1592407-4.9686432,11.1592407-10.9493103C1000.7057495,73.7989273,995.8286743,68.8329849,989.5465088,68.8329849
			z M993.0670776,87.4721069l-3.0360718-6.7289276h-2.7615356v6.7289276h-2.3847656V71.8771515h5.4208374
			c3.0307007,0,4.9794312,1.4426804,4.9794312,4.3791809c0,1.335022-0.8613281,3.3106308-2.9230347,4.1665497l3.3052368,7.0492249
			H993.0670776z M990.144043,73.5862961h-2.8745728v5.4477386h2.8153687c1.4642334,0,2.8207397-0.5329285,2.8207397-2.7238693
			C992.9055786,74.3345566,991.6029053,73.5862961,990.144043,73.5862961z"/>
	</g>
	<g>
		<path class="st0" d="M17.7537994,13.9813995c3.3292007,1.2208004,4.6602001,4.3271999,4.6602001,6.8241997
			c0,4.8262005-4.2168007,7.9336014-9.0985994,7.9336014H0V0.4444h12.0945997c6.2139997,0,9.3203993,3.1064,9.3203993,7.3788004
			c0,1.7754002-0.8319988,4.3828001-3.6611996,5.9365997V13.9813995z M4.4941998,3.9951999v8.4326h7.4891996
			c3.1074104,0,4.9383993-1.6641998,4.9383993-4.3271999c0-2.5528002-1.8309889-4.1054001-4.9383993-4.1054001H4.4941998z
			 M4.4941998,15.8123999v9.3760004h7.9335995c3.7166004,0,5.4363995-1.9969997,5.4363995-4.6044006
			c0-2.5527992-1.8299999-4.7715998-5.4363995-4.7715998H4.4941998z"/>
		<path class="st0" d="M47.9949989,28.7392006l-2.7187996-7.767601H34.0135994
			c-0.5545998,1.6093998-1.0537987,2.7187996-2.7744007,7.767601h-4.6602001L37.0653992,0.4444h5.3261986l10.4295998,28.2947998
			H47.9949989z M40.7263985,7.546c-0.2771988-0.6662002-0.8320007-2.6083999-1.0535889-3.2736001h-0.055809
			C39.3953972,4.9376001,38.7849998,6.8797998,38.5077972,7.546c-1.3321991,3.7165999-2.1083984,6.6013999-3.4403992,10.3192005
			h9.2098007C42.8905983,14.1473999,42.1142006,11.3184004,40.7263985,7.546z"/>
		<path class="st0" d="M62.5915985,7.1016002c0,6.1581998,0.0547981,12.0389996,0.1660004,21.6375999h-4.3827896V0.499h4.6045876
			l11.9286003,17.0887985l3.1622009,4.6602001h0.055603V0.499h4.3271942l-0.0547943,28.2402h-4.1610031L65.0877991,10.1534004
			C64.2557983,8.9326,63.589798,8.1006002,62.7575989,6.8797998L62.5915985,7.1016002z"/>
		<path class="st0" d="M95.5515976,28.7392006h-4.4942017V0.4444h4.4942017v12.0945997L107.9791946,0.4444h5.3262024
			L101.3209991,11.8174l12.2618103,16.9218006h-5.1602097L98.3249969,14.6473999l-2.7733994,2.6632004V28.7392006z"/>
		<path class="st0" d="M148.5943909,29.0722008c-9.8183899,0-13.5369873-5.6034012-13.5369873-14.2588005
			C135.0574036,6.9912,138.5533905,0,148.5943909,0c10.0429993,0,12.9844208,7.046,12.9844208,14.7021999
			C161.5788116,22.9139996,157.2505951,29.0722008,148.5943909,29.0722008z M148.5943909,3.2734001
			c-7.156189,0-8.9315796,5.7147999-8.9315796,11.6513996c0,7.1015997,2.6640015,10.9296007,8.9315796,10.9296007
			c5.714798,0,8.3789978-4.993,8.3789978-11.0410004C156.9733887,9.4874001,155.6411896,3.2734001,148.5943909,3.2734001z"/>
		<path class="st0" d="M169.6255951,28.7392006V0.4444h19.4199982v3.5507998h-14.9805908V12.0948h11.8729858v3.4404001h-11.8729858
			v13.2040005H169.6255951z"/>
		<path class="st0" d="M229.4420013,28.7392006l-2.718811-7.767601h-11.2635956
			c-0.5547791,1.6093998-1.0527802,2.7187996-2.7736053,7.767601h-4.6599884L218.5121918,0.4444h5.3262024l10.4295959,28.2947998
			H229.4420013z M222.1743927,7.546c-0.2774048-0.6662002-0.8320007-2.6083999-1.0547943-3.2736001h-0.0546112
			C220.842392,4.9376001,220.2309875,6.8797998,219.953598,7.546c-1.3300018,3.7165999-2.1074066,6.6013999-3.4394073,10.3192005
			h9.2109985C224.3383942,14.1473999,223.5609894,11.3184004,222.1743927,7.546z"/>
		<path class="st0" d="M255.0219879,23.3574009L265.1195984,0.499h4.9921875v28.2402h-4.3262024V8.5995998h-0.2225952
			l-9.0429993,20.1396008h-3.2733917l-9.0996094-20.2509995h-0.2225952v20.2509995h-4.3262024V0.499h5.0487976
			l10.0976105,22.8584003H255.0219879z"/>
		<path class="st0" d="M278.6058044,28.7392006V0.4444h19.5293884v3.5507998h-14.9786072v8.1552h12.8164062v3.3848h-12.8164062
			v9.6532001h15.7012024v3.5508003H278.6058044z"/>
		<path class="st0" d="M320.6116028,16.4228001l6.8241882,12.3164005h-4.7167969l-6.3788147-11.8174h-6.2695923v11.8174h-4.5507812
			V0.4444h11.375c6.7129822,0,9.9297791,3.4949999,9.9297791,8.0995998
			C326.824585,11.8730001,324.662384,15.4238005,320.6116028,16.4228001z M316.3401794,13.7598
			c3.4394226,0,5.9356079-1.2763996,5.9356079-5.1046c0-3.4949999-2.6622009-4.9373999-6.0469666-4.9373999h-6.2148438V13.7598
			H316.3401794z"/>
		<path class="st0" d="M334.8733826,28.7392006V0.4444h4.4940186v24.5241985v3.7706013H334.8733826z"/>
		<path class="st0" d="M369.4415894,27.6298008c-2.3299866,0.8877983-6.1582031,1.3867989-9.0996094,1.3867989
			c-9.9861755,0-13.4823914-5.7695999-13.4823914-14.2031994C346.8595886,8.7110004,349.5783997,0,360.6193848,0
			c3.4960022,0,6.1582031,0.5548,8.0996094,1.2208l-0.7753906,3.329c-3.1074219-0.832-5.6602173-0.9433999-7.2127991-0.9433999
			c-6.4356079,0-9.265625,4.2168002-9.265625,11.2070007c0,6.4356003,2.1074219,10.7080002,9.5428162,10.7080002
			c1.6641846,0,4.9942017-0.3330002,7.5449829-1.0545998L369.4415894,27.6298008z"/>
		<path class="st0" d="M394.1895752,28.7392006l-2.7187805-7.767601H380.209198
			c-0.5566101,1.6093998-1.0545959,2.7187996-2.7754211,7.767601h-4.6601868L383.2599792,0.4444h5.3262024l10.4295959,28.2947998
			H394.1895752z M386.9219971,7.546c-0.2771912-0.6662002-0.8320007-2.6083999-1.0545959-3.2736001h-0.0548096
			c-0.2225952,0.6652002-0.8337708,2.6073999-1.1112061,3.2736001c-1.3302002,3.7165999-2.1073914,6.6013999-3.4393921,10.3192005
			h9.2108154C389.084198,14.1473999,388.3088074,11.3184004,386.9219971,7.546z"/>
	</g>
</g>
</svg>
