<svg xmlns="http://www.w3.org/2000/svg" width="32" height="32" fill="none"><path fill="#178733" d="M9.955 11.53h-2.32a.553.553 0 0 0-.554.554v10.022c0 .306.247.553.553.553h2.321a.553.553 0 0 0 .553-.553V12.084a.553.553 0 0 0-.553-.553ZM9.955 6.604h-2.32a.553.553 0 0 0-.554.553v2.065c0 .306.247.553.553.553h2.321a.553.553 0 0 0 .553-.553V7.157a.553.553 0 0 0-.553-.553ZM23.795 12.687c-.323-.423-.796-.77-1.42-1.043-.625-.273-1.316-.407-2.075-.407-1.537 0-2.836.587-3.905 1.76-.2.222-.36.16-.36-.138v-.78a.553.553 0 0 0-.553-.553h-2.074a.553.553 0 0 0-.553.553v10.023c0 .306.247.553.553.553h2.321a.553.553 0 0 0 .553-.553v-3.49c0-1.446.088-2.439.264-2.975.176-.537.499-.968.968-1.29a2.741 2.741 0 0 1 1.596-.487c.466 0 .86.113 1.19.34.331.226.566.544.713.955.146.41.218 1.316.218 2.71v4.237c0 .306.247.553.553.553h2.32a.553.553 0 0 0 .554-.553v-5.673c0-1.002-.063-1.768-.189-2.305a3.818 3.818 0 0 0-.674-1.437Z"/><path fill="#178733" d="M31.66 9.335c-.076-1.688-.349-2.845-.738-3.85a7.733 7.733 0 0 0-1.835-2.816A7.854 7.854 0 0 0 26.279.838c-1.01-.39-2.166-.662-3.85-.737C20.724.017 20.187 0 15.876 0c-4.312 0-4.848.017-6.54.092C7.645.168 6.49.44 5.484.83a7.7 7.7 0 0 0-2.816 1.835A7.814 7.814 0 0 0 .838 5.476c-.39 1.01-.662 2.166-.737 3.85C.017 11.029 0 11.565 0 15.877c0 4.311.017 4.848.092 6.54.076 1.689.348 2.845.738 3.85a7.843 7.843 0 0 0 1.835 2.816 7.853 7.853 0 0 0 2.807 1.831c1.01.39 2.166.663 3.85.738 1.693.075 2.234.092 6.541.092 4.312 0 4.848-.017 6.54-.092 1.69-.075 2.846-.348 3.851-.738a8.12 8.12 0 0 0 4.647-4.646c.39-1.01.662-2.166.737-3.85.076-1.694.092-2.234.092-6.541s.005-4.848-.07-6.54Zm-2.858 12.96c-.067 1.55-.327 2.388-.545 2.945a5.255 5.255 0 0 1-3.013 3.013c-.557.218-1.399.477-2.945.544-1.676.076-2.175.093-6.41.093-4.237 0-4.744-.017-6.411-.093-1.55-.067-2.389-.326-2.946-.544a4.888 4.888 0 0 1-1.822-1.186 4.807 4.807 0 0 1-1.195-1.823c-.218-.557-.477-1.403-.544-2.945-.076-1.676-.093-2.179-.093-6.41 0-4.233.017-4.744.093-6.411.067-1.55.326-2.389.544-2.946a4.847 4.847 0 0 1 1.19-1.822 4.955 4.955 0 0 1 1.823-1.186c.557-.218 1.404-.478 2.945-.545 1.676-.075 2.18-.092 6.411-.092 4.24 0 4.743.017 6.41.092 1.551.067 2.389.327 2.946.545a4.888 4.888 0 0 1 1.823 1.186c.528.515.93 1.135 1.186 1.822.218.557.477 1.4.544 2.946.076 1.676.093 2.174.093 6.41 0 4.236-.013 4.73-.084 6.407Z"/></svg>