<svg xmlns="http://www.w3.org/2000/svg" width="32" height="32" fill="none"><path fill="#178733" d="M24.03 10.609a7.403 7.403 0 0 1-1.798.457 3.552 3.552 0 0 0 1.492-1.76c.025-.067-.047-.134-.114-.096a7.177 7.177 0 0 1-2.065.754 3.547 3.547 0 0 0-6.138 2.426c0 .28.025.553.083.808a10.047 10.047 0 0 1-7.03-3.377.297.297 0 0 0-.495.088 3.56 3.56 0 0 0-.276 1.375 3.56 3.56 0 0 0 1.575 2.95c-.344-.01-.842-.143-1.194-.256a.293.293 0 0 0-.381.318 3.57 3.57 0 0 0 2.815 3.03c-.289.08-.603.117-.93.117-.067 0-.134 0-.201-.004a.294.294 0 0 0-.277.423 3.584 3.584 0 0 0 3.122 1.994 7.138 7.138 0 0 1-4.4 1.513H7.81c-.214 0-.285.285-.096.385 1.403.742 3 1.157 4.7 1.157 6.533 0 10.103-5.41 10.103-10.098 0-.155-.004-.31-.013-.457a7.025 7.025 0 0 0 1.626-1.621c.038-.072-.025-.155-.1-.126Z"/><path fill="#178733" d="M31.66 9.335c-.076-1.688-.349-2.845-.738-3.85a7.733 7.733 0 0 0-1.835-2.816A7.854 7.854 0 0 0 26.279.838c-1.01-.39-2.166-.662-3.85-.737C20.724.017 20.187 0 15.876 0c-4.312 0-4.848.017-6.54.092C7.645.168 6.49.44 5.484.83a7.7 7.7 0 0 0-2.816 1.835A7.814 7.814 0 0 0 .838 5.476c-.39 1.01-.662 2.166-.737 3.85C.017 11.029 0 11.565 0 15.877c0 4.311.017 4.848.092 6.54.076 1.689.348 2.845.738 3.85a7.843 7.843 0 0 0 1.835 2.816 7.853 7.853 0 0 0 2.807 1.831c1.01.39 2.166.663 3.85.738 1.693.075 2.234.092 6.541.092 4.312 0 4.848-.017 6.54-.092 1.69-.075 2.846-.348 3.851-.738a8.12 8.12 0 0 0 4.647-4.646c.39-1.01.662-2.166.737-3.85.076-1.694.092-2.234.092-6.541s.005-4.848-.07-6.54Zm-2.858 12.96c-.067 1.55-.327 2.388-.545 2.945a5.255 5.255 0 0 1-3.013 3.013c-.557.218-1.399.477-2.945.544-1.676.076-2.175.093-6.41.093-4.237 0-4.744-.017-6.411-.093-1.55-.067-2.389-.326-2.946-.544a4.888 4.888 0 0 1-1.822-1.186 4.807 4.807 0 0 1-1.195-1.823c-.218-.557-.477-1.403-.544-2.945-.076-1.676-.093-2.179-.093-6.41 0-4.233.017-4.744.093-6.411.067-1.55.326-2.389.544-2.946a4.847 4.847 0 0 1 1.19-1.822 4.955 4.955 0 0 1 1.823-1.186c.557-.218 1.404-.478 2.945-.545 1.676-.075 2.18-.092 6.411-.092 4.24 0 4.743.017 6.41.092 1.551.067 2.389.327 2.946.545a4.888 4.888 0 0 1 1.823 1.186c.528.515.93 1.135 1.186 1.822.218.557.477 1.4.544 2.946.076 1.676.093 2.174.093 6.41 0 4.236-.013 4.73-.084 6.407Z"/></svg>