<?xml version="1.0" encoding="UTF-8"?>
<svg width="75px" height="75px" viewBox="0 0 75 75" version="1.1" xmlns="http://www.w3.org/2000/svg" xmlns:xlink="http://www.w3.org/1999/xlink">
    <title>work-icon</title>
    <g id="work-icon" stroke="none" stroke-width="1" fill="none" fill-rule="evenodd">
        <g id="icons/finance/cashflow">
            <g id="Group" fill="#FFFFFF" opacity="0">
                <g id="icon-bounding-box">
                    <rect id="Ø-library-elements/Icons/icon-bounding-box" x="0" y="0" width="75" height="75"></rect>
                </g>
            </g>
            <path d="M24.403125,18.75 L27.528125,25 L59.375,25 L59.375,65.625 L6.25,65.625 L6.25,18.75 L24.403125,18.75 Z M22.471875,21.875 L9.375,21.875 L9.375,62.5 L56.25,62.5 L56.25,28.125 L25.596875,28.125 L22.471875,21.875 Z M35.11875,32.978125 L35.11875,36.484375 C37.7642597,36.7710573 39.8279096,38.9056863 40.025,41.559375 L40.025,41.559375 L40.025,42.184375 L36.9,42.184375 L36.9,41.559375 C36.9,40.559375 35.525,39.446875 33.55625,39.446875 C31.5875,39.446875 30.215625,40.559375 30.215625,41.559375 C30.215625,42.01875 30.215625,43.246875 33.746875,43.684375 C37.8375,44.203125 40.025,46.0125 40.025,48.915625 C39.795349,51.553451 37.7476959,53.6689245 35.11875,53.984375 L35.11875,53.984375 L35.11875,57.5 L31.99375,57.5 L31.99375,53.984375 C29.3670892,53.6678157 27.3214048,51.554333 27.090625,48.91875 L27.090625,48.91875 L27.090625,48.29375 L30.215625,48.29375 L30.215625,48.91875 C30.215625,49.921875 31.5875,51.034375 33.55625,51.034375 C35.525,51.034375 36.9,49.921875 36.9,48.91875 C36.9,48.459375 36.9,47.23125 33.359375,46.7875 C29.259375,46.28125 27.090625,44.46875 27.090625,41.5625 C27.3188448,38.9251763 29.36546,36.8094275 31.99375,36.49375 L31.99375,36.49375 L31.99375,32.978125 L35.11875,32.978125 Z M33.778125,9.375 L36.903125,15.625 L68.75,15.625 L68.75,54.6875 L65.625,54.6875 L65.625,18.75 L34.971875,18.75 L31.846875,12.5 L15.625,12.5 L15.625,9.375 L33.778125,9.375 Z" id="icon" fill="#000000"></path>
        </g>
    </g>
</svg>